<svg xmlns="http://www.w3.org/2000/svg" viewBox="0 0 260.69 293.71"><g id="Layer_2" data-name="Layer 2"><g id="Layer_1-2" data-name="Layer 1"><path d="M0,154.65c0-3.59,0-7.18,0-10.77,0-4.1,2-6.68,6-7.63a1.77,1.77,0,0,0,1.63-2.07c-.06-3.55,0-7.09,0-10.63.09-20.23,4.44-39.43,13.84-57.42A120.75,120.75,0,0,1,40.69,39.05,122.67,122.67,0,0,1,103.75,2.94,119.09,119.09,0,0,1,137.14.19a121,121,0,0,1,49.6,13.53,124.1,124.1,0,0,1,26.41,18.44,121,121,0,0,1,34,52.88,117.71,117.71,0,0,1,5.42,27.78c.51,6.84.14,13.68.26,20.51,0,2,.09,2.53,2.23,3a7.12,7.12,0,0,1,5.62,7.21c0,7.52,0,15,0,22.56a7.11,7.11,0,0,1-6.08,7.24c-1.37.23-1.75.82-1.77,2.11-.32,22.57-6.94,43.24-19,62.23a114,114,0,0,1-17.65,21.58,122.72,122.72,0,0,1-64.29,32.7,124.9,124.9,0,0,1-30.29,1.47,119.24,119.24,0,0,1-38.1-8.79,122.43,122.43,0,0,1-37.55-24,119.72,119.72,0,0,1-32.19-50.33,113.43,113.43,0,0,1-5.93-31.35c-.05-1.41-.21-2.81-.26-4.21,0-.83-.43-1.14-1.23-1.31C2.21,172.5,0,169.79,0,165.57V154.65ZM58.83,91.36a40.65,40.65,0,0,1,11-10.7,17.67,17.67,0,0,1,6.73-3c3.52-.57,6.57.49,7.63,3.91.3,1,1,.86,1.74.74a6.84,6.84,0,0,1,8.22,7.11c0,3.93-2.45,6.52-6.95,7.52-1.22.27-1.61,0-1.35-1.28A6,6,0,0,0,83,89.05a10.12,10.12,0,0,0-7.78-1.71c-9.3,2-16.32,7.08-20.23,15.88-2.12,4.76-2.52,10-2.71,15.1s0,10.57-.09,15.86c0,1.37.42,1.89,1.83,1.88q13.68-.06,27.37,0a2,2,0,0,0,2.18-1.63c.52-2,1.12-3.92,1.66-5.88a15.54,15.54,0,0,0,.39-5.35,6.81,6.81,0,0,0-4.82-6.12,3.81,3.81,0,0,0-5,3,11.79,11.79,0,0,0,.27,5.75c.22.78.18,1.33-.85.92-4.71-1.89-9.32-7.56-6.78-13.59,1.76-4.17,4.9-6.68,9.37-7.06,4.3-.36,7,2.14,8.54,5.93.48,1.16,1,.65,1.61.24,2.8-1.74,5.18-.79,5.95,2.42a13.48,13.48,0,0,1-.28,7.18,98.75,98.75,0,0,1-5.3,13.38c-4.65,9.94-9.72,19.66-14.86,29.34-2.68,5.06-5.43,10.09-8.6,14.86a10.85,10.85,0,0,1-3.33,3.61,4.3,4.3,0,0,1-4.77-.43,3.23,3.23,0,0,1-.79-3.73c.6-1.36,1.23-1.45,2.19-.32,1.23,1.47,2.29,1.53,3.61.14a18.55,18.55,0,0,0,2.67-4.14c.54-1,.1-1.19-.78-1.19-3.3,0-6.6,0-9.9,0-1.14,0-1.52.55-1.51,1.63a63.22,63.22,0,0,0,.9,8.68,75.63,75.63,0,0,0,20.65,41.55A77.8,77.8,0,0,0,104,244.9a76.92,76.92,0,0,0,63.23-4.6,78.36,78.36,0,0,0,23-18.67,76.34,76.34,0,0,0,16.84-34.55,59.57,59.57,0,0,0,1.4-12c0-.8,0-1.65-1.11-1.65q-5.33,0-10.63,0c-.81,0-1,.4-.63,1.14a20.8,20.8,0,0,0,2.62,4c1.49,1.64,2.56,1.62,3.88-.12.74-1,1.29-.84,1.89.08a3.35,3.35,0,0,1-2,4.8c-2.28.67-4-.35-5.37-2a36,36,0,0,1-3.38-5.09c-7.08-12-13.42-24.39-19.49-36.92-2.94-6.07-5.91-12.13-7.53-18.73a10.81,10.81,0,0,1,0-5.89c.9-2.92,3.24-4,5.89-2.5,1.08.61,1.46.36,1.93-.67a8.58,8.58,0,0,1,6-5.25c5-1.19,10.76,2.48,12,7.93,1.32,5.76-2.17,10.42-7,12.43-.83.35-1.21,0-1-.91a14.6,14.6,0,0,0,.56-3.87c-.12-1.86-.3-3.81-2.31-4.68s-3.68.08-5.28,1.18a4.43,4.43,0,0,0-1.29,1.55,10.48,10.48,0,0,0-1.13,6.34,39.67,39.67,0,0,0,2,8.32,1.86,1.86,0,0,0,2,1.46q13.83,0,27.66,0c1.16,0,1.7-.39,1.67-1.6-.19-7.46.24-14.92-.59-22.38-1-9.45-5.29-16.73-13.54-21.51-3.33-1.94-6.85-3.47-10.84-3.35a10.38,10.38,0,0,0-7.16,3.12,5.92,5.92,0,0,0-1.47,5.8c.14.67-.21.81-.82.81a7.64,7.64,0,0,1-7.57-8.33c.27-4.13,4-6.94,8.48-6.28a1.31,1.31,0,0,0,1.64-1A6.29,6.29,0,0,1,183,77.54a10.74,10.74,0,0,1,4.35,1,33,33,0,0,1,8.45,5.88A54.47,54.47,0,0,1,201,90c-7.52-20-32.43-44.59-67.64-45.84C97.31,42.91,69,66.34,58.83,91.36Zm177.09,22.08c.25.8.74,1,1.1,1.29a13.5,13.5,0,0,1,3.76,4.56c1.62,3.65.36,6.93-3.3,8.5a11.16,11.16,0,0,1-2.78.84c-1.5.23-1.68.06-1.25-1.38a10.52,10.52,0,0,0,.49-4.86c-.91-5.43-4.36-9.22-8.2-12.71-4.74-4.31-9.93-8.07-14.85-12.18a4.81,4.81,0,0,0-2-1.41,70.29,70.29,0,0,1,2.72,9.86,3.7,3.7,0,0,0,1.81,2,32.53,32.53,0,0,1,5.93,5.13c4.51,5.07,7.22,11.11,9.35,17.45.17.51.7,1.16.12,1.59s-1-.26-1.41-.52a35.61,35.61,0,0,1-10.87-10.37c-1.2-1.72-2.14-3.62-3.48-5.7-.06.67-.11.94-.11,1.22l0,17c0,2.08.17,2.25,2.24,2.25h31.59c1.18.11,1.65-.42,1.63-1.61,0-3.3,0-6.6,0-9.9a129.76,129.76,0,0,0-1-17.41,115.85,115.85,0,0,0-13-40.37A118.67,118.67,0,0,0,208.28,33.9,117.55,117.55,0,0,0,91.8,11,118.12,118.12,0,0,0,44.61,41.56a116.27,116.27,0,0,0-32.26,76.59c-.22,5.23-.06,10.48-.07,15.72,0,2.11.07,2.17,2.24,2.17H45.39c2.14,0,2.35-.2,2.36-2.31q0-8.5,0-17c0-.28.18-.69-.41-.85-.76,1.27-1.53,2.55-2.27,3.85a33,33,0,0,1-11.92,12.1c-.35.21-.75.61-1.17.27s-.19-.82-.06-1.23c2.85-9,7-17.09,15-22.56a6,6,0,0,0,2.74-4.18c.48-2.65,1.24-5.25,2-8.18-1.56,1.31-2.87,2.44-4.2,3.53C42.2,103.8,36.6,107.77,32,112.84c-3.84,4.2-6.8,8.71-4.6,14.8.28.77-.18.94-.82.93a9.36,9.36,0,0,1-4-1.18,5.81,5.81,0,0,1-2.94-7.25,10.16,10.16,0,0,1,2.57-4c.75-.72,1.53-1.42,2.47-2.29a33.5,33.5,0,0,1-3.46-.44c-2-.48-3.78-1.49-4.4-3.6s.39-3.79,2-5.09c.94-.76,2-1.41,3-2.08.71-.48,1.18-.28,1.34.58a3,3,0,0,0,2.75,2.41,11.14,11.14,0,0,0,4.19,0,33.4,33.4,0,0,0,14.83-7.08c4.43-3.63,8.77-7.12,11.37-12.71,6.36-13.71,16.46-24.39,29.08-32.59C104.14,41,124.76,36.88,146.7,41.39c26.41,5.44,45.69,20.65,58,44.62a25.89,25.89,0,0,0,6.45,8.59c4.24,3.5,8.41,7.05,13.6,9.1a23.07,23.07,0,0,0,8.87,2.07c1.88,0,3.6-.49,4.17-2.66.19-.74.65-.73,1.23-.43a16.55,16.55,0,0,1,2.83,2c1.9,1.53,2.61,3.47,2,5.35a5.18,5.18,0,0,1-5,3.38C237.9,113.46,237,113.44,235.92,113.44ZM50,192.42A93,93,0,0,1,47.57,175c-.07-1.2-.58-1.59-1.72-1.58q-15.95,0-31.88,0c-1.26,0-1.73.46-1.69,1.72.07,2.91.29,5.8.58,8.7a116.12,116.12,0,0,0,38.87,75.75,114.41,114.41,0,0,0,33.73,20.87,116.37,116.37,0,0,0,34.39,8.26,122,122,0,0,0,26.12-.47A118.51,118.51,0,0,0,222,246a115.18,115.18,0,0,0,22-41.83,117.55,117.55,0,0,0,4.36-28.69c.06-2-.05-2.09-2-2.1H215.08c-1.91,0-2.13.2-2.12,2.07a49.85,49.85,0,0,1-.59,7.82c-.45,3-1,6.05-1.59,9.1a60.34,60.34,0,0,1,7.45-8.56,37.66,37.66,0,0,1,9.35-6.35c.42-.2.93-.57,1.34-.13s0,.84-.18,1.22c-.86,1.79-1.72,3.59-2.63,5.35A31.48,31.48,0,0,1,212,198.18a10,10,0,0,0-5.44,5.82c-.91,2.46-2.2,4.79-3.32,7.18,4.37-3.12,9-5.62,13.57-8.31,3.38-2,6.89-3.84,9.86-6.42,4.11-3.57,7.52-7.55,6.12-13.65-.18-.8.3-1.07,1-.91a13,13,0,0,1,3,1.08,5.91,5.91,0,0,1,2.39,9,8.45,8.45,0,0,1-2,2.25c-1,.76-2,1.57-3.19,2.45a35.51,35.51,0,0,1,3.45,1.17c3.92,1.8,4.3,5.93.78,8.37-1,.7-2.06,1.29-3.08,1.93-.72.45-1.19.36-1.29-.57-.22-2-1.57-2.89-3.37-3.3a17.44,17.44,0,0,0-7.64.24A46,46,0,0,0,206.38,212c-3.07,2.12-6.19,4.25-8.42,7.33a82.76,82.76,0,0,1-77.64,34.09,81,81,0,0,1-30.65-10,82.18,82.18,0,0,1-23.53-19.67c-1.9-2.32-3.47-4.91-5.73-6.95a58.17,58.17,0,0,0-14.88-9.83A29.18,29.18,0,0,0,31.87,204c-2.92.14-4.17,1-5,3.79-.25.79-.67.68-1.21.38a23.1,23.1,0,0,1-4.22-2.84,3.87,3.87,0,0,1-1.3-3c0-2.43,1.79-4.37,4.77-5.09.57-.14,1.23-.1,1.75-.68A24.48,24.48,0,0,1,22,192.76c-2.33-2.66-2.65-8.11,2.4-10.09.86-.33,1.75-.57,2.63-.83s1.39-.22.9.91a6.66,6.66,0,0,0-.24,4c.74,4.11,3.16,7.13,6.3,9.65a94.85,94.85,0,0,0,11.51,7.37c4,2.39,8.1,4.71,12,7.34a100.5,100.5,0,0,1-4.74-10.29,3.26,3.26,0,0,0-1.85-1.56c-9.35-4-15.15-11.33-18.8-20.59-.15-.4-.47-.86-.13-1.23s.91,0,1.32.16A38.82,38.82,0,0,1,43,184.4,73.08,73.08,0,0,1,50,192.42ZM44.63,155h0c0,.92,0,1.84,0,2.76.11,4.34-1,4,4.4,3.83,2.4-.09,3.66-1.33,3.89-3.71a20.93,20.93,0,0,0-.21-6.51,3.31,3.31,0,0,0-2.78-2.78,24.3,24.3,0,0,0-3.9-.22c-1,0-1.41.43-1.4,1.4C44.64,151.52,44.63,153.26,44.63,155Zm179.3.07a14.63,14.63,0,0,0-.4-4,3.36,3.36,0,0,0-3.48-2.71c-2-.06-3.28.66-3.7,2.35a18.5,18.5,0,0,0-.21,8.34,3.51,3.51,0,0,0,4,2.87,3.62,3.62,0,0,0,3.57-3.35A17.7,17.7,0,0,0,223.93,155.08Zm-194-7A3.6,3.6,0,0,0,26,151.49,3.8,3.8,0,0,0,27.67,155c.87.7,1.8,1.31,2.68,2a1.57,1.57,0,0,1,.5,1.83,1,1,0,0,1-1.1.78c-.79,0-1-.6-1.19-1.25a1.44,1.44,0,0,0-.11-.42c-.47-.82-1.26-.61-1.95-.5s-.72.76-.59,1.36a3.51,3.51,0,0,0,2.77,3,4.12,4.12,0,0,0,4.25-1.2,3.92,3.92,0,0,0,.54-4.24,4.6,4.6,0,0,0-1.68-1.95c-.82-.6-1.65-1.2-2.43-1.84a1.39,1.39,0,0,1-.42-1.59.87.87,0,0,1,.87-.64,1.09,1.09,0,0,1,1.16.88,1.12,1.12,0,0,0,.18.4,1.73,1.73,0,0,0,2,.35c.8-.26.47-1,.32-1.49A3.45,3.45,0,0,0,29.89,148.12ZM17,154.92v5.38c0,.68.11,1.32,1,1.34,1.74,0,3.49,0,5.23,0,.65,0,.94-.41,1-1s-.08-1.21-.8-1.35a7.71,7.71,0,0,0-1.73-.11c-1.14,0-1.86-.26-1.85-1.61s.59-1.75,1.8-1.67a7.07,7.07,0,0,0,1.3-.05c.74-.08,1-.59.94-1.24s-.41-1-1-1-1,0-1.45,0c-1,0-1.52-.4-1.52-1.47s.49-1.5,1.51-1.47c.44,0,.87,0,1.31,0,.7,0,1.44,0,1.47-1s-.59-1.25-1.42-1.26c-1.41,0-2.82,0-4.22,0-1.16,0-1.54.51-1.51,1.59C17,151.62,17,153.27,17,154.92Zm222-6.27v0a17,17,0,0,1-1.75,0c-1.21-.1-1.63.45-1.62,1.62s-.18,2.22-.21,3.33c0,2.13.8,2.64,2.65,1.53,1.07-.64,1.63-.27,2,.74a3.94,3.94,0,0,1,.21,2c-.12.76-.16,1.64-1.07,1.9s-1.11-.66-1.45-1.27a1.5,1.5,0,0,0-2-.63c-.89.32-.48,1-.29,1.6a3.39,3.39,0,0,0,3.68,2.47,3.65,3.65,0,0,0,3.7-2.9,7.79,7.79,0,0,0,.11-2.89c-.31-2.43-1.38-3.33-3.8-3.09-.66.07-1.41.39-1.46-.75,0-1,.23-1.63,1.35-1.62.77,0,1.55,0,2.32,0a1,1,0,0,0,0-2C240.5,148.64,239.73,148.65,239,148.65Zm-28.9,13h2.77c.75,0,1.17-.32,1.19-1.13s-.39-1.14-1.16-1.12a7,7,0,0,1-1,0c-.68-.07-1.6.34-1.92-.56s.57-1.26,1.05-1.75a13.84,13.84,0,0,0,2.59-3.12,3.86,3.86,0,0,0-.35-4.38c-1.06-1.39-2.6-1.37-4.12-1.07a3.3,3.3,0,0,0-2.63,2.95c-.23,1.18.19,1.59,1.4,1.46.82-.1,1-.68,1.14-1.31.18-.78.51-1.46,1.45-1.19s1,1.08.87,1.9a4.87,4.87,0,0,1-1.36,2.36c-1.44,1.63-3,3.15-3.55,5.4-.24,1.07,0,1.6,1.18,1.58Zm19.23,0c.72,0,1.45,0,2.18,0s1.74.14,1.78-1.13-.91-1.08-1.71-1.17-2.08.45-2.4-.42.77-1.55,1.4-2.19a8.59,8.59,0,0,0,2.55-3.65,3.56,3.56,0,0,0-2.69-4.67,3.78,3.78,0,0,0-4.71,3.15c-.08.57-.14,1.11.58,1.25s1.29.22,1.69-.46a3.62,3.62,0,0,0,.29-.82c.21-.77.59-1.41,1.52-1.12s1,1,.84,1.79a5.19,5.19,0,0,1-1.22,2.27c-1.26,1.58-2.91,2.86-3.54,4.91s-.43,2.25,1.55,2.26C228,161.68,228.65,161.67,229.28,161.67ZM37.6,156.43h0c0,1.26,0,2.52,0,3.78s.81,1.83,2,1.4c.82-.29.81-1.06.81-1.7,0-2.23,0-4.46,0-6.69,0-1.32,0-2.59,1.85-2.62.67,0,.85-.56.8-1.15a1.08,1.08,0,0,0-1.19-1c-1.89,0-3.78,0-5.67,0A1,1,0,0,0,35,149.55a1,1,0,0,0,1,1.11c1.24,0,1.54.81,1.54,1.84C37.6,153.81,37.6,155.12,37.6,156.43Z"/><path d="M130.45,239.19c-4.74-.23-9.51-.23-14.14-1.45a26.79,26.79,0,0,1-3.14-1.15,1.31,1.31,0,0,1-1-1.16c0-.64.47-.92,1-1.16a36.6,36.6,0,0,0,4.17-2.05,21,21,0,0,0,2.91-2.41c1.35-1.3,2.81-2.39,4.83-2.35.87,0,1.17-.44.81-1.22a7.37,7.37,0,0,1,.12-5.79,8.8,8.8,0,0,0-.17-7.21,1.15,1.15,0,0,1-.2-.69c.69-2.85-1.62-5-1.78-7.65a1.19,1.19,0,0,0-.86-1.09c-2.48-.66-4.8-1.73-7.62-.95-5.53,1.52-10.85.43-15.84-2.33a5.22,5.22,0,0,1-1.16-.88,2.81,2.81,0,0,0-2.64-.79,12.18,12.18,0,0,1-10.94-3.44,3.05,3.05,0,0,0-2.55-.75A10.77,10.77,0,0,1,76,193.16a3.21,3.21,0,0,1-1.77-4,109.51,109.51,0,0,1,6.15-16.79,142.38,142.38,0,0,1,20.45-34.25A123.77,123.77,0,0,1,114.61,124a5.88,5.88,0,0,0,1.08-1c1-1.51,2.13-1.44,3.78-.9a35.36,35.36,0,0,0,22.7-.29,1.76,1.76,0,0,1,2.21.54c2.94,3,6.26,5.66,9.2,8.69a125.22,125.22,0,0,1,19.29,26.33,159.78,159.78,0,0,1,13.49,31.35c.76,2.52.46,3.2-1.83,4.49a10.42,10.42,0,0,1-5.71,1.42,4.69,4.69,0,0,0-3.45,1.25,12.11,12.11,0,0,1-10.13,3,3.9,3.9,0,0,0-3,.85c-5.36,3.92-11.35,4.46-17.6,3a5.86,5.86,0,0,0-4.07.2,2.44,2.44,0,0,1-.69.23,3.77,3.77,0,0,0-3.55,3.69,6.31,6.31,0,0,1-.82,2.17,2.7,2.7,0,0,0-.32,2.48,1.74,1.74,0,0,1-.16,1.55c-1.44,2.43-1.08,5-.35,7.47.57,1.92.94,3.75.09,5.66-.38.87,0,1.3.94,1.27a5.22,5.22,0,0,1,4,1.82A17.77,17.77,0,0,0,147,234c.68.22,1.47.46,1.53,1.35s-.8,1.23-1.47,1.58c-3,1.53-6.26,1.72-9.49,2A56.25,56.25,0,0,1,130.45,239.19Zm-43-71.05c.81-.82,1.67-.53,2.53-.09.66.34,1.28.47,1.75-.33,2.53-4.29,5.61-8.23,7.56-12.91a155.73,155.73,0,0,1,9.7-19.05c.28-.47.43-1.11,1.21-1.19.16.55-.18.94-.37,1.36-1.13,2.52-2.34,5-3.41,7.56q-5.94,14.23-11.8,28.51c-1.55,3.81-3.36,7.56-3.42,11.81a1.32,1.32,0,0,1-.63,1.1,2.72,2.72,0,0,0-1,1.69,43.88,43.88,0,0,0-1.15,5.56,1.58,1.58,0,0,0,1.46,2.06,21,21,0,0,0,4.19.39,1.47,1.47,0,0,0,1.61-1.14c.61-1.9,1.23-3.79,1.88-5.67.38-1.1-.07-1.5-1.13-1.61a27.5,27.5,0,0,1-3.14-.56c-.62-.15-1.35-.5-1.25-1.23.39-2.73,1.28-5.3,3.48-7.13,1-.85,2-.36,2.16,1a2.7,2.7,0,0,1-1.94,3.32c1.89.08,2.9-1.28,2.74-3.57-.08-1.18-.27-2.53-1.58-2.84s-1.76.94-2.32,1.83c-.28.46-.47,1-.75,1.41s-.34.84-1.16.85c.54-1.63,1-3.18,1.57-4.7,1.39-3.81.76-3.91,5-3.18.78.13,1.15-.06,1.39-.82.82-2.54,1.71-5,2.57-7.58,4-11.78,8.09-23.49,14-34.48.47-.88.89-1.79,1.33-2.69l-.24-.18-5.3,4.87-.32-.26,1.7-3a.7.7,0,0,0-.54.15,116.16,116.16,0,0,0-25.14,33.44c-2.71,5.26-4.92,10.77-7.33,16.17a78.67,78.67,0,0,0-4.4,11.24c-.5,1.85-.08,2.59,1.75,2.85,1.1.16,2.22.17,3.33.27a1.58,1.58,0,0,0,1.8-1.12c.83-2.18,1.68-4.35,2.53-6.52.39-1,.13-1.6-1-2-2.66-.94-2.71-1.17-1.72-3.77a90.38,90.38,0,0,0,3.22-8.73Zm31.76,7.5c-.1,5.53.34,11.52.64,17.52.07,1.55.31,3.08.51,4.62a2,2,0,0,0,1.69,1.76,25.29,25.29,0,0,0,4.73.73,44.74,44.74,0,0,0,11.44-.48c1.1-.19,2.09-.57,2.18-1.94.19-2.95.45-5.89.58-8.84.23-5.13.59-10.27.51-15.39-.09-5.42-.47-10.83-1-16.24-1.07-10.22-3.55-20.12-6.28-30a1.42,1.42,0,0,0-1.56-1.2c-.57,0-1.15-.11-1.73-.16-3.81-.36-3.86-.33-4.89,3.26,0,.14-.09.28-.13.42C121.67,144.58,119,159.65,119.16,175.64Zm-11,8c1.49,1.36,2.64,1.24,3.62-.41.42-.7.57-1.55,1-2.25a2,2,0,0,0,.12-2.43,2.67,2.67,0,0,0-2.55-1.08,4.51,4.51,0,0,0-2.15.8,11,11,0,0,0-3.66,4.26c-.17.31-.32.84-.81.65s-.2-.59-.15-.91c.34-2.2.71-4.4,1-6.61a1.8,1.8,0,0,1,2.13-1.8,37.62,37.62,0,0,1,7.63.92c1.11.26,1.53-.14,1.58-1.2.09-1.64.24-3.29.32-4.93a96.59,96.59,0,0,1,1.38-13.15,221.26,221.26,0,0,1,7.08-27.75c.16-.49.55-1,.24-1.52-.53-.87-3.73-.81-4.25.09-1.17,2-2.39,4-3.4,6.09a159.9,159.9,0,0,0-15.47,63.15,2,2,0,0,0,.93,2c3.41,1.88,7,2.87,10.91,2,1.74-.4,2.1-.87,2-2.63-.14-2.37-.43-4.73-.48-7.1,0-1.54-.75-1.89-2.09-1.86-2.18,0-4.37.1-6.54-.06-2.82-.2-3.19-.91-2.17-3.51.18-.45.35-.91.56-1.34a8,8,0,0,1,3.44-3.83,2,2,0,0,1,2.65.32,3.48,3.48,0,0,1,0,3.59C110.21,184.24,109.22,184.14,108.11,183.66Zm43.82.42a2.18,2.18,0,0,1-2.72-1.79,2.62,2.62,0,0,1,1-3.12c1.19-.76,2.23,0,3.17.71a9.93,9.93,0,0,1,3.07,4.69c.92,2.55.49,3.17-2.24,3.38-.48,0-1,0-1.45,0h-5.39c-1.69,0-1.91.25-2,2,0,2,0,4-.13,6-.22,2.86.38,3.67,3.24,3.91a18.28,18.28,0,0,0,8.48-1.71,2.57,2.57,0,0,0,1.79-2.77,91.57,91.57,0,0,0-1.21-12.58c-1-6.85-1.47-13.78-3.48-20.47-3.62-12-7.27-24-13.53-34.94-1.2-2.11-1.26-2.14-3.78-1.5-.88.22-1.12.65-.87,1.46.31,1,.59,2.05.92,3.07a160,160,0,0,1,8,43.07c.05,1.22.39,1.64,1.66,1.36a36.43,36.43,0,0,1,7.5-.9c1.78,0,2.1.24,2.37,2s.49,3.36.66,5a4.5,4.5,0,0,1-.11,2.27c-.77-.2-.86-.85-1.15-1.32a10.15,10.15,0,0,0-3.79-3.93,3.34,3.34,0,0,0-3.47-.13c-1.41.83-1.34,2.38.14,5.06C149.41,184.41,150.45,184.81,151.93,184.08Zm22.5-17.51c-4.11-11.29-21.87-36.46-27.11-38.28,0,.84.86,1.4.64,2.56l-5.66-5.37c-.22.51.12.74.25,1,2,4.16,4.2,8.19,6,12.42a311.82,311.82,0,0,1,10.86,29.94c.79,2.45.81,2.44,3.29,2.19a14.17,14.17,0,0,1,1.6-.07c.87,0,1-.37.65-1.1-3.11-7.64-6.18-15.29-9.3-22.93-1.5-3.68-3.12-7.31-4.94-10.85-.26-.5-.83-1.24-.31-1.56s.74.62,1.14,1a1,1,0,0,1,.08.11c3.53,5.32,6.13,11.12,8.83,16.88,1.4,3,2.32,6.19,4.28,8.89a59.48,59.48,0,0,1,4.11,6c.45.82,1,1.11,1.89.68C172,167.52,173.42,167.66,174.43,166.57Zm4.2,9.94c.22.73.48,1.44.64,2.17s.25,1.69-1.08,1.11c-.16-.07-.39-.29-.39.07,0,1.79-1.56,1.63-2.58,2s-1.29.89-.92,1.84c.87,2.2,1.72,4.41,2.61,6.61a1.61,1.61,0,0,0,1.46,1,12.4,12.4,0,0,0,4.45-.46,1.38,1.38,0,0,0,1.07-1.87A49.59,49.59,0,0,0,178.63,176.51Zm-12.15-2.6c1.7,3,.86,6.62,2.41,9.68.48,1,0,1.73-1.06,2a23,23,0,0,1-3.29.62c-1.23.13-1.62.75-1.28,1.87.54,1.81,1.13,3.61,1.68,5.42a1.53,1.53,0,0,0,1.64,1.14,18,18,0,0,0,4.2-.35c1.55-.37,1.84-.74,1.52-2.35-.55-2.75-.91-5.56-2.58-8a4.21,4.21,0,0,1-.52-2A26.8,26.8,0,0,0,166.48,173.91Zm-39.77,62.62c1,0,1.93,0,2.9,0,2-.07,2.83-1.41,1.92-3.25a3.38,3.38,0,0,0-2-1.75,8.33,8.33,0,0,1-2.36-1.1c-1.82-1.38-2.9-1.35-4.55.21a24.42,24.42,0,0,1-5.33,4c-.28.15-.74.23-.65.66s.55.35.87.4A50.19,50.19,0,0,0,126.71,236.53Zm3.5-16.42c0-1,0-2.06,0-3.17,0-.59,0-1.28-.76-1.35s-.9.66-.9,1.21a20.24,20.24,0,0,1-1,5.83,2.65,2.65,0,0,0,.14,2.1c.31.54.57,1.24,1.32,1.16s.82-.76,1-1.3C130.38,223.17,130.06,221.7,130.21,220.11Zm14.26,15.2a28.24,28.24,0,0,1-7.15-5.3,2.47,2.47,0,0,0-1.2-.47c-.44-.11-1-.45-1.31.11s.28.86.59,1.19c1.38,1.45,3.24,2.41,4.46,3.93C141.24,236.48,142.53,236.25,144.47,235.31Zm-14.56-28.76c0-.67.18-1.44-.55-1.6-1-.21-2.2-.64-2.92,0s-.09,1.79.26,2.67a2.88,2.88,0,0,0,.57.82c.49.53,1,1.41,1.63,1.31s.59-1.19.8-1.84A6.91,6.91,0,0,0,129.91,206.55ZM166.51,178a4.32,4.32,0,0,0-1.19-2.14,1.56,1.56,0,0,0-2.87.64,5.36,5.36,0,0,0,.35,4.08,1.77,1.77,0,0,0,1.71,1.16c-1.54-1.85-1.87-3.36-1-4.27C164.65,176.31,165.45,177.38,166.51,178ZM132.63,225a2,2,0,0,0,.65-2.16,19.2,19.2,0,0,1-1.12-6.37c0-.27,0-.66-.41-.62s-.37.42-.36.7A45.88,45.88,0,0,0,132.63,225Zm-3.17-12.91-1.33-.11c-.34,0-.76-.13-.86.3s.27.7.64.83a7,7,0,0,0,5-.12c.32-.12.66-.33.57-.73s-.5-.41-.84-.33A14.2,14.2,0,0,1,129.46,212.12Z"/><path d="M130.32,122.15a31.33,31.33,0,0,1-11-1.84,3.16,3.16,0,0,1-2.3-3.11,18.65,18.65,0,0,0-4.15-11.11,13.56,13.56,0,0,1-1.81-3,19.62,19.62,0,0,0-2.34-3.84A5.55,5.55,0,0,1,107.52,94a4.65,4.65,0,0,0-.26-3.4,30.13,30.13,0,0,1-1.94-5.94,8.41,8.41,0,0,1-.13-2.6c.29-2.41,1.39-3.58,3.82-4.1a67.32,67.32,0,0,0,8.68-2.42c3.34-1.22,4.54-3.68,4.66-7,0-.48,0-1,0-1.45-.07-2.81.28-3.35,3.06-4,1.13-.28,1.38-.57.84-1.72a5.17,5.17,0,0,1,1.63-6.25c.4-.25.94-.64,1.32-.31s-.16.76-.34,1.1a1.75,1.75,0,0,0,.35,2.37,1.59,1.59,0,0,0,2,.08c.89-.6.77-1.46.42-2.34-.16-.41-.73-.91-.2-1.28s1,.17,1.42.48a5.47,5.47,0,0,1,1.43,6.23c-.56,1.14-.21,1.44.85,1.61a8.87,8.87,0,0,1,1.66.52,2.25,2.25,0,0,1,1.54,2.52c0,.38-.11.76-.14,1.15-.28,4.23,1,6.78,4.72,8.17a61.47,61.47,0,0,0,8.23,2.42c3.42.74,4.44,2.11,4.16,5.64a31.15,31.15,0,0,1-2,7.28,5.12,5.12,0,0,0-.19,3.12,5.87,5.87,0,0,1-1.06,5.23c-2.22,2.9-3.6,6.29-5.72,9.27-1.86,2.6-2.47,5.78-2.73,9a3.07,3.07,0,0,1-2.33,3A38.92,38.92,0,0,1,130.32,122.15Zm1-45.33c-.06-1.56-.9-2.85-1-4.19-.23-2.95-2-3.73-4.5-4.14-1.09-.18-1.43.07-1.43,1.1a10.24,10.24,0,0,1-1.81,5.59c-.55.84-.92,1.91-2,2.29-3.37,1.22-6.73,2.49-10.36,2.76-1.66.13-2.09.55-2.2,2.23a15,15,0,0,0,1.42,6.92c.36.85.85,1,1.7.64a6.9,6.9,0,0,1,4.67-.59,3.11,3.11,0,0,0,1.85-.21,4.72,4.72,0,0,1,5,1.07,2.86,2.86,0,0,0,1.74,1c2.3,0,3.79,1.31,5,3,.79,1.13,1.32.94,2-.13a4.91,4.91,0,0,1,4.5-2.7,1.93,1.93,0,0,0,1.44-.62,5.51,5.51,0,0,1,6.11-1.5,1.51,1.51,0,0,0,2.06-.83,22.51,22.51,0,0,1,5.1-6.83c.27-.24.71-.5.51-.95s-.62-.43-1-.47c-2.87-.34-5.52-1.46-8.27-2.22a6.77,6.77,0,0,1-4.84-4.76,13.3,13.3,0,0,1-.8-3.69c0-.4,0-1.05-.56-1s-.53.74-.4,1.18c.43,1.54.9,3.07,1.41,4.58.71,2.15.49,2.9-1.46,4.1a9.06,9.06,0,0,1-2.1,1c-1.69.53-2.16.1-1.92-1.61C131.27,77.46,131.31,77.08,131.34,76.82Zm.06,27.3a2.17,2.17,0,0,0,1.86-1,9,9,0,0,1,3.23-2.16c1-.4,2.15-.71,3,.17s-.12,1.73-.55,2.6c1.74-.87,2-2.21.73-3.57-.84-.86-.55-1.31.29-1.77a3.56,3.56,0,0,1,3.08-.28,3.29,3.29,0,0,1,2,2.24c.31-1-.33-1.45-.83-2s-.45-1.13.4-1.37a2.65,2.65,0,0,1,2.73.51,2.62,2.62,0,0,1,.53,2.85,12.28,12.28,0,0,1-2.43,4.1,24.69,24.69,0,0,0-5.16,11.08c-.14.72-.52,1.94.19,2.09,1,.21.7-1.1,1-1.74a4,4,0,0,0,.17-.7c1.07-4.36,2.31-8.63,5.66-11.91a7.33,7.33,0,0,0,1.15-1.84c1.45-2.83.18-5-3-5.24a11,11,0,0,0-6,1.51A24.75,24.75,0,0,0,131.4,104.12Zm18-9.21c-.12-.57-.48-.66-.77-.8a8.77,8.77,0,0,0-7.2.09,30.81,30.81,0,0,0-8.29,4.48c-.25.2-.56.55-.88.23s0-.66.19-.9a13.89,13.89,0,0,1,1.45-1.42,20.27,20.27,0,0,1,12.35-4.88c-1-.12-2,0-2.91-.16a6,6,0,0,0-5.21,1.59,3.52,3.52,0,0,1-1.87.73,5.49,5.49,0,0,0-4.85,6.26c.09.77.32,1,1,.43s1.38-1.23,2.12-1.78c3.39-2.5,6.91-4.68,11.35-4.66A14.17,14.17,0,0,1,149.36,94.91Zm-36.34-1a16.26,16.26,0,0,1,10.24,2.66,45.55,45.55,0,0,1,5,3.76c.31.27.88,1,1.07-.15A5.79,5.79,0,0,0,125,94a6.43,6.43,0,0,1-3.14-1.38,4.31,4.31,0,0,0-4.61-.63,20.55,20.55,0,0,1,6,2.3c1.76,1.17,3.78,2,4.79,4.13-.53.3-.71,0-.93-.15a31.88,31.88,0,0,0-7.53-4.06C117.46,93.39,115.22,92.9,113,93.94Zm16.67,10.93a1.36,1.36,0,0,0-.52-1.05,25.53,25.53,0,0,0-9.5-6.79,10.34,10.34,0,0,0-5-.79c-1.77.22-3.07,1.43-3,3a5.4,5.4,0,0,0,2.56,4.42c-.33-.88-.87-1.66-1.25-2.5a3.13,3.13,0,0,1,.14-3.32,2.65,2.65,0,0,1,2.9-.84c.38.07.87,0,1,.44s-.34.63-.62.85a1.8,1.8,0,0,0-.79,2.08A3,3,0,0,1,118.76,98c1.56.05,3.41-.21,4.13,1.89a2.23,2.23,0,0,0,1.54,1.22,6,6,0,0,1,3.14,2.27A3.68,3.68,0,0,0,129.69,104.87Zm.74,14.33a10.59,10.59,0,0,1,1.36-3.4c.64-.9,1.42-1.68,2.64-1.46s.95,1.29,1,2.49c.34-.71.55-1,.67-1.4.38-1.05-.21-1.76-.94-2.39s-1.08.25-1.56.53-1,.75-1.52,1.11c-.27.18-.55.48-.91.24s-.21-.61-.2-.94a9.17,9.17,0,0,1,1.25-3.93c-1.86,2.22-1.86,2.22-3.72.33.7,1.52,1.37,2.77,1.16,4.23,0,.27,0,.65-.33.71-.18,0-.43-.17-.6-.32-.71-.58-1.38-1.21-2.1-1.78s-1.46-.3-1.92.48a2.2,2.2,0,0,0,.27,2.48c.71-2.24,1.93-2.48,3.56-.85A8.21,8.21,0,0,1,130.43,119.2Zm-9.85-2.35a25.94,25.94,0,0,0-2.51-8.41c-.16-.34-.38-.85-.81-.66-.59.25-.15.78,0,1.12a40.39,40.39,0,0,1,2.22,8.09c.07.45.06,1.15.68,1.09S120.49,117.31,120.58,116.85Zm15.14-5.5c.65-.72,1.18-1.47.7-2.26a3.14,3.14,0,0,1-.07-3.53c-.83.43-1.25,1-1.95,1.11s-1.17-.47-1.77-.7a2,2,0,0,0,.32,1.52,1.89,1.89,0,0,1,.26,1.52C135.44,108.36,135.86,108.73,135.72,111.35Zm-11.3-5.47c1.52,1.52-.75,2.91.08,4.54.28-.82.44-1.51,1.25-1.67,1.67-.32,2-1.62,2.29-3.1C127,107.1,125.79,106.74,124.42,105.88Z"/><path d="M130.54,242.72c-5.2,0-10.38-.13-15.38-1.79a16.14,16.14,0,0,1-2-.85c-.5-.24-1-.64-.73-1.25s.85-.48,1.36-.33a59.87,59.87,0,0,0,17.71,2c5.18-.06,10.37-.36,15.37-2,.57-.19,1.31-.55,1.61.32s-.34,1.17-.93,1.43a29.48,29.48,0,0,1-8.57,2.15A72,72,0,0,1,130.54,242.72Z"/><path d="M92.3,32.57c-.34-1.85-.68-3.63-1-5.42-.26-1.48-.47-3-.76-4.45a1.51,1.51,0,0,1,1-1.95c1.27-.49,2.52-1,3.76-1.56a1.2,1.2,0,0,1,1.86.7q3.43,8.19,6.89,16.36c.5,1.19,0,1.77-1,2.22-2.75,1.15-2.73,1.18-3.84-1.6-1.24-3.11-2.48-6.22-3.87-9.3q.63,3.42,1.27,6.85c.3,1.62.55,3.25.94,4.85.34,1.36-.45,1.82-1.46,2.24s-1.92.88-2.78-.38c-1.82-2.69-3.73-5.31-5.61-8a3.19,3.19,0,0,0-1-1.05q1.91,4.35,3.83,8.7c1.19,2.69,1.16,2.62-1.55,3.82-1.35.6-2,.3-2.49-1-2.16-5.35-4.41-10.67-6.67-16-.48-1.12-.35-1.79.88-2.22a38.44,38.44,0,0,0,3.61-1.55,1.43,1.43,0,0,1,2.08.6c1.69,2.48,3.44,4.93,5.18,7.38C91.68,32.09,91.77,32.46,92.3,32.57Z"/><path d="M191.92,45.44l-5.08,6.72c-1.24,1.64-1.36,1.61-2.92.4-2.66-2.06-2.08-1.82-.36-4,3.36-4.2,6.83-8.32,10.19-12.52.76-1,1.34-1,2.24-.26,3.13,2.67,3.16,1.84,1.69,5.82a68.94,68.94,0,0,0-2.24,7c.3-.38.6-.75.89-1.13,1.49-1.92,3-3.82,4.46-5.75.69-.91,1.33-.88,2.18-.18,2.44,2,2.43,2,.39,4.44q-5,6-9.85,12c-1.13,1.38-1.37,1.42-2.8.28l-.57-.46c-2-1.74-2-1.74-1.08-4.19l3.07-8.14Z"/><path d="M45.9,71.17l-6.57-3.94c-2.08-1.24-2.1-1.3-.89-3.32l.59-1a1,1,0,0,1,1.58-.35Q48.29,67.42,56,72.23c.9.57.94,1.18.44,2.07-1.8,3.18-1.78,3.2-5.4,2.39-1.28-.29-2.55-.61-3.82-.93A27.89,27.89,0,0,0,43.33,75l7.22,4.36a5.14,5.14,0,0,0,.51.29c1.25.52,1.43,1.2.7,2.44-1.66,2.78-.95,2.83-3.93,1-4.57-2.84-9.09-5.76-13.68-8.57-1.18-.73-1.37-1.41-.64-2.59,1.8-2.88,1.77-2.88,5.14-2.07,2.38.56,4.77,1.07,7.16,1.61Z"/><path d="M58.61,42.69A5.5,5.5,0,0,1,63.73,47c.25,1.16.66,1.71,1.92,1.88,2.68.36,4.2,2.17,5.08,4.62s-.09,4.18-1.6,5.82-2.88,2.87-4.31,4.32a1.22,1.22,0,0,1-2.07,0c-4.11-4.37-8.27-8.7-12.41-13-.51-.54-.85-1.09-.16-1.74,1.86-1.75,3.49-3.77,5.67-5.18A6.08,6.08,0,0,1,58.61,42.69Zm7.46,13.44A3.25,3.25,0,0,0,64,53.28a2.09,2.09,0,0,0-2.19.8c-.57.73.09,1.23.54,1.72s.79.86,1.22,1.24.78,1.18,1.53.76A2,2,0,0,0,66.07,56.13Zm-8.51-8.54a1.75,1.75,0,0,0-1.64.72c-.39.69.27,1,.63,1.45s.59.62.9.93c1,1,1.75.75,2.14-.56A2.08,2.08,0,0,0,57.56,47.59Z"/><path d="M155.79,33.32a27.65,27.65,0,0,1,4.45-11.76c1.78-2.56,5.51-3,8.52-1.28s3.83,4.18,2.71,7.42c-.33,1-.81,1.23-1.72.81a10,10,0,0,0-1.5-.56c-1.19-.33-1.86-.88-1.43-2.29.23-.78.22-1.73-.79-2.09s-1.59.33-2,1.09a40.17,40.17,0,0,0-3.44,9.7,1.56,1.56,0,0,0,.94,1.91c.83.35,1.38-.1,1.87-.72,1.08-1.37,1.05-1.87-.16-3.13-.77-.8-.07-1.54.16-2.28a1.16,1.16,0,0,1,1.45-.89,29,29,0,0,1,4.79,1.69c.75.32.53.92.32,1.49l-2.61,7.41c-.71,2.06-2.23,2.46-3.68.82A1.78,1.78,0,0,0,162,40C158.29,40.29,155.79,37.91,155.79,33.32Z"/><path d="M85.88,45.87a1,1,0,0,1-.48.73c-.39.29-.79.56-1.19.83-2.38,1.55-2,1.74-3.86-.36-1.22-1.37-2-.36-3,.22a1.54,1.54,0,0,0-.59,2.34c1.19,2.23,1.16,2.25-1,3.75s-2.21,1.55-3.22-1c-2.13-5.31-4.24-10.64-6.41-15.93-.42-1-.35-1.75.64-2.32.51-.29,1-.67,1.43-1,2.32-1.61,2.36-1.66,4.48.27C76.88,37.16,81,41,85.05,44.75,85.4,45.08,85.81,45.37,85.88,45.87ZM71.49,38.48c.82,1.68,1.64,3.36,2.43,5.06.4.85.86.66,1.49.23s.8-.81.21-1.48A20.67,20.67,0,0,0,71.49,38.48Z"/><path d="M186.68,30.41c-.05.18-.14.56-.25.93q-2.49,8.52-5,17c-.47,1.62-.63,1.69-2,.86-.21-.12-.42-.24-.62-.37-2-1.27-2.76-1-1.43-3.91.68-1.49-.44-1.83-1.33-2.39s-1.64-.89-2.29.31a9.48,9.48,0,0,1-.9,1.13,1.17,1.17,0,0,1-1.76.35,19.15,19.15,0,0,0-2.16-1.21c-1.17-.54-1-1.18-.3-2q6.12-6.74,12.21-13.47a1.51,1.51,0,0,1,2.17-.35c.95.58,1.94,1.09,2.92,1.63A1.32,1.32,0,0,1,186.68,30.41Zm-5.12,2.8-.17-.1-3.75,4.58c-.58.71-.21,1.11.44,1.48s1.18.46,1.48-.4C180.23,36.92,180.89,35.06,181.56,33.21Z"/><path d="M196.26,62.57a6.42,6.42,0,0,1,1.83-4.63,34.93,34.93,0,0,1,8-6.7c3.37-2,6.64-1.14,9.11,2.27,2.16,3,1.78,6.33-1,8.91-.68.64-1.23.66-1.79-.1-.26-.35-.55-.68-.84-1-1.45-1.63-1.46-1.63-.24-3.36.59-.83.88-1.64.09-2.49a1.71,1.71,0,0,0-2.38-.11,35,35,0,0,0-7.5,6.4,1.81,1.81,0,0,0-.09,2.63c.83.92,1.71.61,2.59,0,2.07-1.48,2.07-1.47,3.8.42,1.59,1.72,1.52,2-.43,3.41-2.2,1.55-4.46,2.06-6.94.7A7.64,7.64,0,0,1,196.26,62.57Z"/><path d="M227.64,72.89c-.51,1.15-1.71,1.35-2.64,1.87-.67.38-1.07-.19-1.38-.7-.64-1-1.29-2.06-1.88-3.12-.87-1.56-1.8-.46-2.67,0s-1,1.18-.4,2,1.27,2,1.91,2.92c.4.59.32,1-.3,1.44-2.65,1.91-2.84,1.89-4.46-.86L215.6,76c-1.55-2.5-1-2.39-3.63-.91-1.06.6-1.18,1.22-.53,2.22s1.28,2.28,1.95,3.4a1.07,1.07,0,0,1-.4,1.7l-.25.15c-2.45,1.52-2.5,1.51-4-1-1.22-2-2.39-4.11-3.64-6.13-.64-1-.56-1.72.54-2.37,5.09-3,10.15-6.09,15.21-9.14.71-.43,1.33-.58,1.84.29,1.54,2.63,3.1,5.26,4.65,7.89A5,5,0,0,1,227.64,72.89Z"/><path d="M151.66,28.1c-1-.19-2-.34-3-.59s-1.61,0-1.82,1.17c-.51,2.75-.54,2.74,2.21,3.2.53.09,1.05.19,1.58.3,2.05.41,2.14.53,1.79,2.59s-.48,2.24-2.62,1.8c-2.52-.52-5-1-7.56-1.47-1.16-.2-1.54-.73-1.33-1.9,1-5.77,2-11.54,3-17.32a1.26,1.26,0,0,1,1.62-1.21c3,.52,5.91,1.07,8.86,1.62.8.15,1.2.59,1,1.45-.14.56-.25,1.13-.35,1.71-.14.85-.64,1.11-1.46.94-1.18-.24-2.38-.45-3.57-.69s-1.72.43-1.91,1.56,0,1.8,1.25,2c.81.11,1.62.28,2.43.44,1.79.35,1.94.57,1.62,2.32,0,.29-.11.57-.14.86A1.23,1.23,0,0,1,151.66,28.1Z"/><path d="M115.61,35.44c-.9.24-1.4-.13-1.53-1.22q-1.06-8.79-2.19-17.58c-.14-1.17.58-1.53,1.55-1.66,2.74-.35,5.48-.67,8.21-1.08,1.7-.26,1.59,1,1.8,2s.18,2-1.16,2.2-2.4.32-3.61.39c-1.4.08-1.33,1-1.22,2s.26,1.86,1.66,1.56c1-.21,2.11-.25,3.17-.36a1.22,1.22,0,0,1,1.55,1.27,4.74,4.74,0,0,0,.16,1c.39,1.41-.27,2-1.59,2.09-1,.09-2,.25-3,.35a1,1,0,0,0-1,1.26.77.77,0,0,1,0,.15c.25,2.82.25,2.82,3.15,2.62a12.5,12.5,0,0,0,1.73-.16c1.2-.24,2.09-.18,2.28,1.36.28,2.32.1,2.72-1.71,3-.38,0-.76.14-1.15.17Z"/><path d="M134.58,34.53c-1.75.07-3.48-.19-5.22-.28-.84,0-1.24-.39-1.24-1.24,0-5.95.29-11.89.48-17.84,0-1.45.73-1.74,2-1.7,3.06.1,3,0,2.87,3.09-.17,3.91-.21,7.83-.36,11.75,0,1.3.41,1.87,1.75,1.81.86,0,1.74.23,2.6.2,1.49-.05,1.8.74,1.73,2-.1,1.89-.33,2.19-1.88,2.21h-2.76Z"/><path d="M61.71,66.86A11.75,11.75,0,0,1,59,70.34,1.2,1.2,0,0,1,57.8,70q-7.11-5.85-14.24-11.7c-.5-.41-.63-.82-.21-1.35l.09-.12c3-3.89,2.14-3.38,5.32-.84,4.05,3.23,8,6.54,12,9.82C61.2,66.09,61.65,66.4,61.71,66.86Z"/><path d="M228.87,88.56A3.77,3.77,0,1,1,225,84.81,3.7,3.7,0,0,1,228.87,88.56Z"/><path d="M39.4,88.82a3.68,3.68,0,0,1-3.75,3.61,4,4,0,0,1-3.75-4,3.82,3.82,0,0,1,3.83-3.58A3.73,3.73,0,0,1,39.4,88.82Z"/><path d="M152.7,269.48c.3,1.36.58,2.74.91,4.1a1,1,0,0,1-.89,1.48c-.87.21-1.59.15-1.82-.85-.71-3.12-1.39-6.24-2.06-9.37-.2-.94.29-1.46,1.18-1.67,1.08-.27,2.22-.75,2.95.6s1.27,2.49,2,4a17,17,0,0,0,.22-4.06,2.93,2.93,0,0,1,3.49-2.36,1.33,1.33,0,0,1,.87,1.08c.65,3,1.28,6.07,2,9.09.24,1.06-.15,1.54-1.16,1.73s-1.57,0-1.72-1.12a16.78,16.78,0,0,0-1.09-4.08c0,1.43,0,2.85,0,4.27,0,.95-.26,1.77-1.31,2s-1.26-.69-1.59-1.35c-.59-1.21-1.14-2.43-1.7-3.65Z"/><path d="M135.94,270.87c.18-1.58.37-3.17.54-4.75.13-1.24.94-1.46,2-1.34,1.21.13,1,1,.84,1.76-.56,3-1.16,6-1.7,9-.2,1.15-.88,1.49-1.94,1.5s-1.54-.63-1.7-1.6a20.86,20.86,0,0,0-.83-3.61c-.18,1.28-.39,2.56-.53,3.84a1.32,1.32,0,0,1-1.52,1.36c-.94,0-1.85.08-2.12-1.2-.66-3.08-1.38-6.15-2.07-9.22-.16-.68-.37-1.45.68-1.54.88-.07,1.95-.35,2.17,1,.26,1.58.49,3.16.79,5.09a18.32,18.32,0,0,0,.77-4.46c.15-1.26.73-1.83,1.94-1.85s1.47.89,1.64,1.84l.78,4.23Z"/><path d="M173.75,264.09c.42,1,.82,2,1.26,2.91s-.16,1.39-.91,1.78a1.1,1.1,0,0,1-1.73-.65c-1.17-2.86-2.35-5.73-3.5-8.61-.24-.59-.68-1.3.19-1.78s1.83-1.08,2.77-.11a20.59,20.59,0,0,0,2.79,2.62c-.4-1-.76-2-1.21-3s-.16-1.42.73-1.81a1.16,1.16,0,0,1,1.81.73c1.14,2.77,2.33,5.53,3.49,8.29.31.73.93,1.54-.21,2.1s-2.09,1-3-.22A7.67,7.67,0,0,0,173.75,264.09Z"/><path d="M224,230.76a4.76,4.76,0,0,1-1.61,1.92c-.46.36-.94.08-1.33-.21-.67-.48-1.29-1-2-1.49a.88.88,0,0,0-1.2,0c-.42.48,0,.81.33,1.09.6.57,1.23,1.1,1.86,1.62a1.07,1.07,0,0,1,.07,1.83c-.57.57-1.08,1.38-2,.55-2.48-2.16-4.94-4.34-7.43-6.49a1.07,1.07,0,0,1-.09-1.74c.74-.84,1.42-1.72,2.19-2.52,1.87-1.92,4.21-1.57,5.36.87a3.47,3.47,0,0,0,2,1.91,25.29,25.29,0,0,1,3.56,2.2A1.87,1.87,0,0,1,224,230.76Z"/><path d="M93.85,260.62a3.45,3.45,0,0,1-1.45,2.69,1.68,1.68,0,0,0-.76,1.72c.1,1.58-.72,3-1.09,4.49-.15.65-.83.28-1.24.11-.79-.32-1.81-.53-1.57-1.73.15-.76.51-1.47.7-2.22.15-.56.31-1.26-.44-1.48s-.68.54-.88.94a11.33,11.33,0,0,0-.66,1.61c-.32,1-.82,1.48-1.94,1s-1.38-1-.93-2.14c1.17-2.83,2.3-5.66,3.42-8.51a1.25,1.25,0,0,1,1.93-.82c1,.46,2.06.85,3.06,1.35A3.26,3.26,0,0,1,93.85,260.62Z"/><path d="M50.38,229.38a3.09,3.09,0,0,1-2.51,3A2.45,2.45,0,0,0,45.79,234c-.54,1.36-2,2.1-2.81,3.3a.37.37,0,0,1-.52.08,4.22,4.22,0,0,1-1.67-2c-.24-.67.39-1,.8-1.4a21,21,0,0,0,1.61-1.66.72.72,0,0,0-.09-1c-.31-.29-.65-.14-.92.08-.63.53-1.25,1.07-1.85,1.63-.83.78-1.44.38-2.08-.3s-.74-1.34,0-2l7.58-6.32a1,1,0,0,1,1.07-.24C48.07,224.66,50.39,228.11,50.38,229.38Z"/><path d="M109.19,263.93c-.11.72-.2,1.44-.32,2.16a.86.86,0,0,0,.71,1.08.89.89,0,0,0,1.23-.68c.2-.7.34-1.41.5-2.12.22-1,.9-1.15,1.77-1a1.2,1.2,0,0,1,1.12,1.55c-.58,3.19-1.18,6.39-1.77,9.58-.17.89-.73,1-1.52.86s-1.62-.23-1.44-1.37c.14-.91.29-1.82.47-2.72a1,1,0,0,0-.76-1.34c-.79-.23-1.06.3-1.2.91-.18.8-.34,1.61-.46,2.43-.17,1.12-.85,1.24-1.8,1.07s-1.47-.46-1.22-1.62c.66-3.08,1.23-6.18,1.81-9.28a1.23,1.23,0,0,1,1.66-1.11C108.92,262.5,109.35,263,109.19,263.93Z"/><path d="M198.67,252.79c0,2.48-.92,3.86-2.65,4.49a3.68,3.68,0,0,1-4.48-1.33,27.87,27.87,0,0,1-3.12-4.71,3.62,3.62,0,0,1,1.24-5c1.82-1.35,3.67-1.42,5.1.15C196.57,248.42,198.27,250.55,198.67,252.79Zm-2.89,1a1.36,1.36,0,0,0-.06-.29,19.63,19.63,0,0,0-3.31-5.09.75.75,0,0,0-1.06-.11,1,1,0,0,0-.31,1.29,24.86,24.86,0,0,0,3.25,4.8.76.76,0,0,0,1,.25A.9.9,0,0,0,195.78,253.79Z"/><path d="M79.35,265.13c-3,0-4.75-2.36-3.9-5.09a20.15,20.15,0,0,1,2.65-5.46,3.65,3.65,0,0,1,5-1.26,3.72,3.72,0,0,1,2.23,4.52,17.33,17.33,0,0,1-2.88,5.82A3.53,3.53,0,0,1,79.35,265.13Zm2.16-9.5c-.17.11-.43.19-.55.36a22.88,22.88,0,0,0-2.74,5.4.72.72,0,0,0,.47.93.93.93,0,0,0,1.14-.4,18.4,18.4,0,0,0,2.52-5C82.55,256.26,82.34,255.74,81.51,255.63Z"/><path d="M44.9,221.9a3.7,3.7,0,0,1-1.06,2.46,21.74,21.74,0,0,1-5.47,4.06,2.85,2.85,0,0,1-3.15-.33,13,13,0,0,1-3-3.69c-.33-.49-.1-.79.3-1.08l8.22-6c.33-.23.76-.44,1.07-.13A12.3,12.3,0,0,1,44.9,221.9Zm-3-.1a.85.85,0,0,0-.33-.87c-.35-.25-.65,0-.92.16-1.37,1-2.73,2-4.08,3-.36.27-1,.51-.53,1.12a.94.94,0,0,0,1.41.22c1.39-1,2.74-2,4.09-3A1.81,1.81,0,0,0,41.86,221.8Z"/><path d="M140.06,269.23c0-.71,0-1.25,0-1.78a3.92,3.92,0,0,1,7.37-1.68,13.47,13.47,0,0,1,1,7.94c-.32,1.85-1.71,2.69-3.91,2.74a3.51,3.51,0,0,1-3.82-2.67A15,15,0,0,1,140.06,269.23Zm3-1H143c.21,1.53.4,3.06.64,4.58a.92.92,0,0,0,1.11.89.94.94,0,0,0,.8-1.05,28.55,28.55,0,0,0-.71-5.44.9.9,0,0,0-1-.8c-.58.09-.72.57-.73,1.09C143,267.78,143.05,268,143.05,268.26Z"/><path d="M202.85,251.71a3.5,3.5,0,0,1-3-1.18c-1.7-2.05-3.33-4.15-5-6.21-.73-.89-.19-1.37.48-1.88s1.27-.9,1.95,0c1.23,1.63,2.51,3.21,3.76,4.81.18.22.34.47.53.69.46.51,1,1.15,1.69.58s.05-1.15-.31-1.63c-1.31-1.74-2.64-3.47-4-5.2-.59-.76-1.15-1.42,0-2.27s1.69-.51,2.39.43c1.47,2,3,3.9,4.48,5.9a3.14,3.14,0,0,1,.19,3.68A4.18,4.18,0,0,1,202.85,251.71Z"/><path d="M169.54,270.34a1.42,1.42,0,0,1-1.38-.81,1.2,1.2,0,0,0-1.53-.49c-.65.24-.77.71-.75,1.38a1.92,1.92,0,0,1-2.07,1.9c-.59,0-.72-.41-.76-.87-.31-3.51-.62-7-.9-10.55-.08-1.1.92-1.09,1.6-1.35s1.54-.58,2.07.31c1.81,3,3.62,6,5.37,9C171.66,269.65,170.93,270.3,169.54,270.34Z"/><path d="M208.11,231.33a3.09,3.09,0,0,1,.8.35c2.55,1.93,5.34,3.49,8,5.29.49.34,1.27.66.63,1.44s-1,1.68-2.22,1c-.55-.31-1.07-.72-1.68-.09a1.4,1.4,0,0,0-.18,1.95c.68,1.12-.25,1.77-.92,2.28-.83.63-1.18-.29-1.51-.82-1.68-2.6-3.32-5.23-5-7.86C205.29,233.64,206.54,231.36,208.11,231.33Z"/><path d="M61.83,240.32a2.46,2.46,0,0,1-1,2.35c-.71.42-1.14-.22-1.63-.58a.9.9,0,0,1-.3-1.27c.18-.35.32-.73,0-1.07a.57.57,0,0,0-.79,0,1.13,1.13,0,0,0-.47,1.15c.19.9.45,1.78.62,2.69a4.07,4.07,0,0,1-2.17,4.5,3.56,3.56,0,0,1-4.47-.88,3.43,3.43,0,0,1-.43-4.4c.37-.55.79-1.26,1.61-.74s1.45.91,1,2c-.2.43-.48.89-.05,1.34a.69.69,0,0,0,.81.1c.61-.27.63-.81.59-1.36-.08-1.2-.68-2.32-.59-3.56a3.64,3.64,0,0,1,7.09-1.24A5.5,5.5,0,0,1,61.83,240.32Z"/><path d="M64.35,242c2.56,0,4.45,2.5,3.52,4.62-.25.56-.59,1.37-1.31,1s-1.79-.61-1.37-1.85c.11-.32.29-.64,0-.92a.68.68,0,0,0-.81-.06.87.87,0,0,0-.44,1c.21.89.53,1.76.73,2.65a4.17,4.17,0,0,1-1.92,4.89,4.08,4.08,0,0,1-4.57-.84,3.1,3.1,0,0,1-.64-4c.33-.63.67-1.46,1.62-1,.77.4,1.56.93,1,2.05-.17.35-.38.7,0,1.06a.77.77,0,0,0,.81.19,1,1,0,0,0,.63-1.06,11.94,11.94,0,0,0-.76-3.09A3.82,3.82,0,0,1,64.35,242Z"/><path d="M114.4,273.85c.39-2.92.8-5.84,1.18-8.77a1.2,1.2,0,0,1,1.49-1.17l4.18.49c.78.09,1.08.52,1,1.3s-.36,1.43-1.34,1.35c-.58-.05-1.15-.15-1.73-.15a.85.85,0,0,0-.88.81c0,.47.3.68.7.79a7,7,0,0,0,1.27.28c1,.08,1.34.63,1.21,1.57s-.67,1.21-1.53,1.11c-.28,0-.57-.08-.86-.13-.65-.12-1.16,0-1.28.77s0,1.38.87,1.56c.52.1,1.05.14,1.58.23.86.15,1.05.73,1,1.5a1,1,0,0,1-1.26,1.07c-1.2-.11-2.4-.29-3.6-.37C114.87,276,114.12,275.39,114.4,273.85Z"/><path d="M56.71,235a1.5,1.5,0,0,1-2.07,1.2,7.94,7.94,0,0,1-1.16-1.09c-.51-.55-1-.7-1.6-.1s-.35,1,.14,1.47c.25.23.48.48.73.71.6.55.54,1.06,0,1.61s-1.06.88-1.74.23a14.11,14.11,0,0,0-1.07-1c-.66-.52-1.18-.1-1.66.34s-.35.95,0,1.4c.26.29.52.57.81.84.74.69,1,1.34.09,2.17s-1.46.59-2.15-.24c-.83-1-1.75-1.94-2.68-2.86a1,1,0,0,1,0-1.7c2.4-2.26,4.78-4.54,7.17-6.81.46-.44,1-.7,1.54-.2a25.59,25.59,0,0,1,3.39,3.59A2.3,2.3,0,0,1,56.71,235Z"/><path d="M219.48,216.92a1.38,1.38,0,0,1,1.19,2.15,8.57,8.57,0,0,1-.76,1.06c-.58.68-.38,1.21.27,1.7s1,0,1.38-.49c.58-.77,1-2,2.33-1,.9.63.86,1.25.21,2.05-.38.48-1.11.93-.68,1.74.56,1.09,1.52,1.06,2.33,0,.59-.79.95-2.13,2.4-1.09.61.44.85.94.39,1.6-.87,1.27-1.76,2.54-2.68,3.79a1,1,0,0,1-1.63.17c-2.56-1.91-5.13-3.8-7.7-5.71-.6-.45-.93-1-.42-1.73.87-1.27,1.76-2.54,2.64-3.81A.79.79,0,0,1,219.48,216.92Z"/><path d="M184.38,253.47a5.42,5.42,0,0,0-.26-2.1,1.3,1.3,0,0,1,.61-1.5c.57-.35,1.13-1,1.81-.76s.45,1.09.51,1.69c.28,3.09.55,6.17,2.47,8.82.88,1.23-.17,1.7-1,2.2s-1.4.05-1.76-.79a12,12,0,0,0-4.61-5.48,8,8,0,0,1-1.39-1.05c-.44-.48-1.65-.71-.81-1.76s2.18-1.29,3.08-.34A3.07,3.07,0,0,0,184.38,253.47Z"/><path d="M69.17,259.7a4.42,4.42,0,0,1-1.87-1.25c-.43-.53,0-1,.29-1.45,1.6-2.61,3.24-5.19,4.83-7.8a1.24,1.24,0,0,1,2-.46c1.09.72,2.23,1.38,3.36,2a1,1,0,0,1,.4,1.58c-.41.71-.92,1-1.67.52-.46-.27-.93-.52-1.39-.8s-.89-.17-1.19.34-.44,1,.19,1.37c.33.2.64.44,1,.61.88.42.87,1,.45,1.78a1.11,1.11,0,0,1-1.76.53c-1.86-1-1.88-.94-3,.86-.3.5-.58,1-.89,1.5C69.8,259.37,69.62,259.68,69.17,259.7Z"/><path d="M104,264.16c-1-.26-1.11.6-1.29,1.27-.56,2-1.1,4-1.6,6.05-.27,1.13-.77,1.63-2.05,1.29s-1.21-1.11-.93-2.08c.58-2.05,1.11-4.12,1.69-6.17.24-.82.33-1.51-.75-1.8s-.79-1.05-.6-1.78.8-.84,1.48-.65c1.53.45,3.07.9,4.61,1.32.87.24,1.37.67,1.17,1.66S104.89,264.33,104,264.16Z"/><path d="M47.49,154.94c0-1,0-1.93,0-2.9,0-.57,0-1.25.79-1.34a1.4,1.4,0,0,1,1.46,1,5.34,5.34,0,0,1,.38,2.41,13.57,13.57,0,0,1-.28,4c-.25.75-.71,1.34-1.56,1.23s-.77-.88-.79-1.5C47.47,156.87,47.49,155.9,47.49,154.94Z"/><path d="M221,155.06c0,1.11.05,2.22,0,3.33,0,.66-.35,1.26-1.14,1.26a1.13,1.13,0,0,1-1.12-1.27q-.07-3.25,0-6.51c0-.7.28-1.42,1.15-1.4s1.12.78,1.14,1.55c0,1,0,2,0,3Z"/><path d="M86.84,169.25c-1.46,2.84-2.5,5.86-3.68,8.82-.29.75-.41,2.12-1.46,1.75s-.18-1.46.07-2.16a88.07,88.07,0,0,1,4.06-9.61c.19-.39.35-.86.88-.85s.63.5.69.94Z"/><path d="M125,185.88c.86,2,2,2.74,3.83,2.45a6,6,0,0,1,2.31,0c.5.1,1.11.41,1.46-.16s-.15-1.12-.52-1.53A4.09,4.09,0,0,1,131,183.4c.15-1.66,1-2.5,2.66-2.4a5.43,5.43,0,0,1,4.69,2.72,10.25,10.25,0,0,1,1.35,5.29,2.13,2.13,0,0,1-2.2,2.36c-.63,0-1.26.1-1.88.09-4.32-.09-8.64.29-12.94-.29-.77-.11-1.38-.23-1.66-1.11-1-3.28,1.74-8.22,5.06-9a2.77,2.77,0,0,1,3.27,1.24,4.2,4.2,0,0,1-.52,4.12C127.91,187.36,126.69,187.23,125,185.88Z"/><path d="M140.54,185.51c-.71-1.06-1.22-1.87-1.78-2.65-1.29-1.79-5.13-3.51-7.43-2.26a2.42,2.42,0,0,1-2.12.07c-3.37-1.4-6.33.24-7.93,2.74-.24.37-.38,1.08-1,.9s-.31-.85-.39-1.3a12.65,12.65,0,0,1,0-4.34c.18-1.16.7-1.69,1.94-1.61,2.81.19,5.62.3,8.43.38a57,57,0,0,0,7.83-.51c2.13-.24,2.87.34,2.92,2.49A25.7,25.7,0,0,1,140.54,185.51Z"/><path d="M133.91,85.73c0,1.11-.14,1.27-1.27,1.36-.39,0-.43.48-.61.75-1.72,2.56-2,2.56-3.53,0-.23-.37-.21-1.12-1.09-.68-.4.2-.44-.39-.45-.71,0-1.11,0-2.22-.19-3.33s.67-1.61,1.67-1.46a7.53,7.53,0,0,0,3.71-.18c.92-.3,1.48.29,1.57,1.22S133.85,84.72,133.91,85.73Z"/></g></g></svg>