<svg xmlns="http://www.w3.org/2000/svg" viewBox="0 0 1804.46 328.39"><defs><style>.cls-1{font-size:100px;fill:#b0b0c0;font-family:Arial-Black, Arial;font-weight:800;}.cls-2{letter-spacing:-0.07em;}.cls-3{letter-spacing:-0.03em;}.cls-4,.cls-6,.cls-8{fill:#231f20;}.cls-5{fill:none;stroke:#231f20;stroke-width:5px;}.cls-5,.cls-6,.cls-8{stroke-miterlimit:10;}.cls-6,.cls-8{stroke:#fff;}.cls-6{stroke-width:0.75px;}.cls-7{fill:#fff;}</style></defs><g id="Layer_2" data-name="Layer 2"><g id="Layer_1-2" data-name="Layer 1"><text class="cls-1" transform="translate(446.7 134.22) scale(1.01 1)">NIGERIAN RES<tspan class="cls-2" x="811.08" y="0">T</tspan><tspan class="cls-3" x="876.51" y="0">A</tspan><tspan x="950.88" y="0">URANT</tspan></text><text class="cls-1" transform="translate(448.4 271.8) scale(0.8 1)">MIMI’S RICH FOODZ KIGALI</text><path class="cls-4" d="M18.62,264l316.14.91s-8.65,16.19-16.2,25.06H34.88S22.54,275,18.62,264Z"/><path class="cls-4" d="M76.58,328.39S61.2,321,50,307.1l253.44-.59s-17.15,18.77-26.32,21.88Z"/><path class="cls-4" d="M139.57,61.94s20.41,9.17,9.17,34c0,0-9.17,16.27-11.24,26,0,0-2.81,13.16-1.77,21.88,0,0-14.79-6.51-7.69-32.83A193.27,193.27,0,0,1,140.9,87.67S148.44,72.59,139.57,61.94Z"/><path class="cls-4" d="M190.15,93.19s20.4,9.17,9.17,34c0,0-9.17,16.26-11.24,26,0,0-2.81,13.16-1.78,21.89,0,0-14.78-6.51-7.69-32.83a194.19,194.19,0,0,1,12.87-23.36S199,103.83,190.15,93.19Z"/><path class="cls-4" d="M172.38,21.62s38.2,16.56,17.17,61.45c0,0-17.17,29.39-21,47,0,0-5.26,23.78-3.32,39.54,0,0-27.69-11.75-14.4-59.31a347.3,347.3,0,0,1,24.08-42.21S189,40.86,172.38,21.62Z"/><path class="cls-5" d="M26.83,270.93A179.3,179.3,0,0,1,2.5,180.38C2.5,82.14,80.85,2.5,177.5,2.5s175,79.64,175,177.88A179.36,179.36,0,0,1,330,267.66"/><path class="cls-6" d="M47.16,178.76l.88-45.4h3.31v37.32h3.11V133.36H58v37.76l2.32.11V133.36h3.28v38l2.16-.17v-38h3.16v43.75s-.5,7-5.32,10.87c0,0-.28,0-.28,1.16s-.39,45.92-.39,45.92,1,28.72.33,32.71c0,0-.59,11.83-4.58,13.16,0,0-6.51,2.22-5-13.9l0-42.4L54,191.25s.44-2-1.67-4.21C52.29,187,48.23,182.12,47.16,178.76Z"/><path class="cls-6" d="M269.18,273s.59,5.23,6.65,3.94c0,0,4.51,0,4.29-3.94L280,223.78l-.37-32.31s-.66-5,6.21-7.46c0,0,8.87-1.19,8.5-11.24,0,0,2.67-17.45-6.43-30.54,0,0-5.69-10.49-12.79-10.57,0,0-11.75,5.18-15.23,22.4,0,0-5,15.75.52,25.58,0,0,4.95,7,11.68,8.51,0,0,.44-.23.22,1.84s.08,24.85.08,24.85l-1,11.53-1.63,38S269,272.13,269.18,273Z"/><path class="cls-4" d="M63.32,190h209s4.81,24.33-10.27,44.07c0,0-14.2,21.29-30.61,33.49H104.53l-5.33-5.1S58.93,224.3,63.32,190Z"/><path class="cls-7" d="M159.24,197.39H84.12l-8.09-2s10.75,56.9,38.7,66.66c0,0-28.39-24.85-27.5-61.22C87.23,200.79,145.19,199.31,159.24,197.39Z"/><path class="cls-8" d="M72.15,190h97.73s.15-6.8-21.29-13.6c0,0-1.18-16.26-25-16.12,0,0-8.43-1.33-21.14,8.88,0,0-3.4-.15-4.73-.15s-3.11-.59-5.48-.59-2.21-1-3.4,0S73,169.88,72.15,190Z"/></g></g></svg>