<svg id="Layer_1" data-name="Layer 1" xmlns="http://www.w3.org/2000/svg" viewBox="0 0 5000 5000"><defs><style>.cls-1{font-size:100px;fill:#b0b0c0;font-family:Arial-Black, Arial;font-weight:800;}.cls-2{letter-spacing:-0.07em;}.cls-3{letter-spacing:-0.03em;}.cls-4,.cls-6,.cls-8{fill:#231f20;}.cls-5{fill:none;stroke:#231f20;stroke-width:5px;}.cls-5,.cls-6,.cls-8{stroke-miterlimit:10;}.cls-6,.cls-8{stroke:#fff;}.cls-6{stroke-width:0.75px;}.cls-7{fill:#fff;}</style></defs><text class="cls-1" transform="translate(1972.95 2256.46) scale(1.01 1)">NIGERIAN RES<tspan class="cls-2" x="811.08" y="0">T</tspan><tspan class="cls-3" x="876.51" y="0">A</tspan><tspan x="950.88" y="0">URANT</tspan></text><text class="cls-1" transform="translate(1974.66 2394.04) scale(0.8 1)">MIMI’S RICH FOODZ KIGALI</text><path class="cls-4" d="M1544.87,2386.22l316.14.91s-8.65,16.19-16.19,25.06H1561.14S1548.79,2397.28,1544.87,2386.22Z"/><path class="cls-4" d="M1602.84,2450.63s-15.38-7.38-26.62-21.28l253.44-.59s-17.15,18.76-26.32,21.87Z"/><path class="cls-4" d="M1665.83,2184.18s20.4,9.17,9.17,34c0,0-9.17,16.27-11.24,26,0,0-2.81,13.16-1.78,21.88,0,0-14.78-6.5-7.69-32.82a194.73,194.73,0,0,1,12.87-23.37S1674.7,2194.83,1665.83,2184.18Z"/><path class="cls-4" d="M1716.4,2215.43s20.41,9.17,9.17,34c0,0-9.17,16.26-11.24,26,0,0-2.81,13.16-1.77,21.89,0,0-14.79-6.51-7.69-32.83a193.27,193.27,0,0,1,12.86-23.36S1725.28,2226.08,1716.4,2215.43Z"/><path class="cls-4" d="M1698.64,2143.86s38.2,16.57,17.16,61.45c0,0-17.16,29.39-21,47,0,0-5.26,23.77-3.32,39.54,0,0-27.68-11.76-14.39-59.32a345.73,345.73,0,0,1,24.08-42.21S1715.25,2163.1,1698.64,2143.86Z"/><path class="cls-5" d="M1553.09,2393.17a179.26,179.26,0,0,1-24.33-90.54c0-98.25,78.35-177.89,175-177.89s175,79.64,175,177.89a179.36,179.36,0,0,1-22.48,87.27"/><path class="cls-6" d="M1573.41,2301l.89-45.4h3.31v37.32h3.1V2255.6h3.55v37.77l2.33.11V2255.6h3.27v38l2.16-.17v-38h3.16v43.75s-.49,7-5.32,10.87c0,0-.28,0-.28,1.17s-.38,45.91-.38,45.91,1,28.72.33,32.71c0,0-.59,11.83-4.59,13.16,0,0-6.5,2.22-5-13.9l0-42.4.33-33.16s.45-2-1.66-4.21C1578.55,2309.28,1574.48,2304.36,1573.41,2301Z"/><path class="cls-6" d="M1795.43,2395.26s.59,5.23,6.66,3.95c0,0,4.51,0,4.28-3.95l-.14-49.24-.37-32.3s-.67-5,6.21-7.47c0,0,8.87-1.18,8.5-11.24,0,0,2.66-17.45-6.43-30.53,0,0-5.69-10.5-12.79-10.58,0,0-11.76,5.18-15.23,22.41,0,0-5,15.74.51,25.58,0,0,5,7,11.69,8.5,0,0,.44-.22.22,1.85s.07,24.84.07,24.84l-1,11.53-1.63,38S1795.22,2394.38,1795.43,2395.26Z"/><path class="cls-4" d="M1589.58,2312.24h209s4.8,24.32-10.28,44.06c0,0-14.19,21.29-30.61,33.49H1630.78l-5.32-5.1S1585.19,2346.54,1589.58,2312.24Z"/><path class="cls-7" d="M1685.49,2319.63h-75.11l-8.1-2s10.76,56.89,38.71,66.65c0,0-28.39-24.84-27.51-61.22C1613.48,2323,1671.45,2321.55,1685.49,2319.63Z"/><path class="cls-8" d="M1598.4,2312.24h97.74s.15-6.8-21.29-13.61c0,0-1.19-16.26-25-16.11,0,0-8.43-1.33-21.15,8.87,0,0-3.4-.15-4.73-.15s-3.1-.59-5.47-.59-2.22-1-3.4,0S1599.29,2292.13,1598.4,2312.24Z"/></svg>