<svg xmlns="http://www.w3.org/2000/svg" viewBox="0 0 161 224.74"><defs><style>.cls-1,.cls-2,.cls-5{fill:#fff;}.cls-2,.cls-3,.cls-4,.cls-5{stroke:#000;stroke-miterlimit:10;}.cls-3,.cls-4{fill:none;}.cls-4{stroke-width:2px;}.cls-5{stroke-width:3px;}.cls-6{fill:#fefefe;}</style></defs><g id="Layer_2" data-name="Layer 2"><g id="Layer_1-2" data-name="Layer 1"><ellipse class="cls-1" cx="80.5" cy="104.17" rx="80.5" ry="80.61"/><path class="cls-1" d="M136.83,204.27s-2.54-2.12-1.41-3.37l3.2-1.92s1.17-.67,2.3,1.12c0,0,.7,1.25,0,2C140.92,202.06,137.75,204.27,136.83,204.27Z"/><path class="cls-1" d="M143.91,210.72s-1.66-.75-1.13-1.75l2-1.28a1.4,1.4,0,0,1,1.53,1s.35.59-.15.93C146.19,209.59,144.34,211,143.91,210.72Z"/><ellipse class="cls-1" cx="80.5" cy="104.17" rx="50.25" ry="49.81"/><path class="cls-2" d="M60.88,150.19s-9.63-16.5-16-18.25a2.71,2.71,0,0,0-1.13-2.38c-1.25-.75-2.25,1.63-3.5,2.25s-2.63,2-2.63-.87,2.26-10.63,6.26-15.25c0,0-.26.87-1.63-.75a33.51,33.51,0,0,0-3.87-3.75c-.88-.75-.63-.63-.76-2.63a27,27,0,0,0-.74-4.37v-1.5c0-2,1.37-2.5,1.37-3.13s-1-.62-1.37-2.12-2.13-3.5,4-11.5L43,83.19s5-6,23.17-10.63c0,0-1.67.67-1.34,2s3.17,1.5,1.34,2.5a23.1,23.1,0,0,1-4.34,1.67c-.5.17-.83,1.17-1,1.67s-1.16.83-1.5,1.83,1.34,2.5-.33,2.5H57.33s.5,1.33.84,2.17.33,1.16-1,1.83-3,.5-2.34,2.33c0,0,0,.63.59.34s1.08-.67,1.75-1S58.42,89,59,89.9s.83,1.7.21,1.7-.67-.41-1.25-.33-1.3-.25-1.5.63-.42,1.16.5,1.08,1.41-.58,2.08-.25,1.46,1.25.62,1.5-1.16.62-1.45,0-.46-.87-.79-.33-.13,1-1,.75-1.09-1.13-1.46-.63-.21.84-1,.84-1,.12-1.21-.42S52,92.56,51.08,93.4s-1.25.08-2.41,2.08-1.59,2.83-1.25,4.17.83,2.83,1.25,4.41,1.25,2.84.91,2.92-1.83-1.67-2.25-3.5a14.53,14.53,0,0,0-1.25-4.08c-.41-.5-1.5-1.84-1.16,1.41a15.37,15.37,0,0,0,2.66,6.67c.25.25,3.09,8.92,7.92,8.08a4.25,4.25,0,0,0,1-.91c.25-.42.75-1.25.5-1.92a6.81,6.81,0,0,0-.75-1.36s1.92-1.56,2.17,3.19l-1.5,2c-.5.67-.75.59-.92,1.84s-1.5,4.41-1.67,5.41a21,21,0,0,0-.41,3.34c0,1.16,1.08,6.16,1.08,7.5s1.42,4.33,1.42,4.66,3.5,7.09,3.5,7.09S62.5,150.73,60.88,150.19Z"/><path d="M58.67,93.73s.41-.16,0,.83-1.09,1.17-1.34,1.75-.91.84,0,1.09,2-.75,1.52,0-1.52.91-1.35,1.33.83.25.83.58.5,1.25.09,1.42.53.67.53.67.8.83.72,1.08-.57,1,0,1.25,1.91,1.5,1.16,1.83-1.25.67-1.5,0,.17-1.5-.37-1.83.21-.5-.79-1-1.19.25-1.31-.92a11.29,11.29,0,0,1,0-1.66c0-.34-.78.37-.61-.32s-.17-.6-.58-.52-.34-.33-.42.09.25.37-.5.43-.75-.35-1.58-.35-1.12-.42-1.6,0-.82-1-.9.35-1.05,4.77,3.71,5.61a1.15,1.15,0,0,1,.95.51c.34.53.88,1.24.46,1.36a1.17,1.17,0,0,1-.87,0,19.19,19.19,0,0,1-2-.71c-.5-.25-3.09-.91-3.29-3.45,0,0-1.34-4.05,1-5.09a3.4,3.4,0,0,1,3.62.59s.42.16.5-.17a2.81,2.81,0,0,0,.05-1c-.05-.34-.42-.75-.13-1s1,.08.92-.25.41-.67.71-.63,1.33-.25,1.33-.5.46-.79.46-.79S58.51,93.68,58.67,93.73Z"/><path d="M55,104s.22-.13.22-.71a5.51,5.51,0,0,0,0-1.52c-.16-.46-.24-.65-.37-1.08s-.1-.78-.29-1a1,1,0,0,0-.65-.3.65.65,0,0,0-.5.36c-.1.23-.45,0-.54.37s-2,2.32.57,3.86C53.4,104,54.52,104.92,55,104Z"/><path d="M91,130.73l3.83-3.58a8.93,8.93,0,0,1,1.67-.92c.42-.08.83-1.08,1.83-1.08a15.78,15.78,0,0,0,2.75,0,8.44,8.44,0,0,0,2.75-.5c1-.5,1.5-.59,1.84-.84s1.91-.16,2.25.75.91,1,.91,2.65-.66,4.1-1.5,4.35a1.64,1.64,0,0,1-1.25,0s-3.5,2.92-4.25,3.09a8,8,0,0,1-1.91.33,11.89,11.89,0,0,1-3.09,0,3.69,3.69,0,0,1-2.66-1.33C93.58,133.15,91,130.73,91,130.73Z"/><path d="M94.62,127.77c-.34-.1-.54.08-.62-.5s-.17-.75.31-1.17a6.21,6.21,0,0,1,1.44-1c.54-.25,1.67-.33,1.67-.58s-.63-.58,0-.58a3.83,3.83,0,0,1,1.33.46c.25,0,.92-.34.58-.46s-.71.17-.75-.25-.25-.67.17-.75,1-.42,1.33,0a4.41,4.41,0,0,1,.59,1.16l.37-.41v-.75c0-.46-.25-.88,0-1.25s0-1.5.58-.54a5.68,5.68,0,0,1,.67,2.08c.13.21.63,0,.67.46s.37.13.41,0,.21-.29,0-1.09-1.41-1.5-.2-1,1.33.34,1.91,1.29,1.46,1.59.46,1.71a5.28,5.28,0,0,0-2.08.38c-1,.41.05,0-.87.06a13.19,13.19,0,0,0-2.22.21c-.75.19-.7.35-1.37.14s-.58-.7-1.54.09-1.08.75-1.42,1.25A5.09,5.09,0,0,1,94.62,127.77Z"/><path d="M96.88,107.39s-5.5,4.67-4.13,7.3c0,0-.44,1.62,2.56,1.93,0,0,1-3.5,4.61-1.43a2.67,2.67,0,0,0,.58.5c.19.06.25.18,1.94.93s1.75.82,2.25-.62-.57-1.31,0-2,.75-1.25,1.62-1,1.81-.06,1.69-.38a6.89,6.89,0,0,1-1.12-1.75c-.76-1.56-5.32-9.68-5.38-10.87a29,29,0,0,0-.19-3.25c-.12-.38-.43-1.25.13-1.25s.62.37,1.31,2.12a10.65,10.65,0,0,0,2,3.57c.87,1,2.87,2.18,3,2.43s.44,1.32-1.25.32a12.05,12.05,0,0,1-2.12-1.44s-.26,1.25-.07,1.56,3.88,5.94,4,6.25,1.69,1.25,1.25,2.19-.5,1.62-1.31,1.94-1.69.56-1.69.56-.68,3.5-3.44,2.94a14.5,14.5,0,0,0-1.43.87c-.19.19-.13,1.44-1,.63s-.69-1.44-1.13-2.07-.12-1.12-.56-1.25-.5.88-1.31.69a2.79,2.79,0,0,0-1.81.06,3.27,3.27,0,0,1-4.07-2.93S92.81,107.47,96.88,107.39Z"/><path d="M75.25,100.55s5.6.18,6.51-.32,3.07.25,3.49,0,2.25-.46,2.83-.86,1.75,0,1.75,0l.42-1.22s-.75-2.59-4.5-3.25c0,0-.42-1.27-.75-1.18s1.75-1.68-2.25,0S78,93.9,74.5,97.48c0,0-2.17-.38.67-2,0,0,6.91-6.35,13.83-4.1,0,0,4.13,1.54,2.81,8,0,0-.64.23-1,0s.63.88.21,1.55c0,0-2.33,4.79-13.54,1.41a1,1,0,0,0-.79-.58H74.92C74.5,101.73,74,100.76,75.25,100.55Z"/><path class="cls-3" d="M74.88,101.12s-2-2.93,5.43-5.12"/><path class="cls-3" d="M73.74,96.71a9.07,9.07,0,0,1,6,3.84l.56,1.07"/><path d="M81,98.81a2.38,2.38,0,0,1-1.67-2.1,1.2,1.2,0,0,1,1.42-.94h1a12,12,0,0,0,1.13-.67c.48-.33.94-1.29,1-.54a5.62,5.62,0,0,1,0,1.21c0,.29,2,2.29-.75,3A3.16,3.16,0,0,1,81,98.81Z"/><ellipse class="cls-1" cx="82.16" cy="97.31" rx="0.97" ry="0.94"/><path d="M71.25,90.06s12.12-5.67,22.69.85c0,0,1.75.84.62-1.57,0,0-1.62-4.4-13.37-4A14.72,14.72,0,0,0,71,89.6Z"/><path d="M101.21,95.59a4.39,4.39,0,0,1,3-2.72s4.31-2.62,7.31,0v1.38s2.81,4.81-5.88,5.06c0,0-2.1.63.95,1.69,0,0,7.93,1.37,6.81-5.5,0,0-.22-.5.1-.56s1.08-.57.9-1-.26-.82-.88-.82a3,3,0,0,1-1.38-.56.32.32,0,0,1,.13-.5.92.92,0,0,0,.25-1.15c-.19-.29-1.44-2.72-6.69-.85,0,0-5,1.75-5.08,5.94C100.73,96,101.21,96.28,101.21,95.59Z"/><path d="M104.09,93.75c.12,0,3.35-1.78,4.47,0a1.86,1.86,0,0,1,.25,1.34s.25,2.38-2.33,1.94c0,0-1.79-.09-2.1-1.53,0,0,1.12-.59,1.21-.48s-.28,1.32,1.63.48c0,0,.5-.69-.1-1.09a1.67,1.67,0,0,0-1.81.09,1,1,0,0,1-.28.31c-.12.06-.5.35-.65.43s-.94.51-1,.57-.62.88-.62.41a2.21,2.21,0,0,1,.59-1.2c.1,0,.16-.43.19-.61A1,1,0,0,1,104.09,93.75Z"/><path d="M101.17,93s8-8.47,13.58-7.22a2.2,2.2,0,0,0,.5-1.25c0-.67-.44-1.25-.85-1.17S104.5,82.91,101.17,93Z"/><path class="cls-3" d="M109.19,89.36s1.56-2.11,5.21-.24"/><path class="cls-4" d="M115.25,82.12a19.41,19.41,0,0,0-.37,3.43,13.65,13.65,0,0,1,.18,2.57c-.06.57.12,1.75,0,2.32a3.55,3.55,0,0,1-.66,1.62c-.28.19-.2.51-.28.89s.38.48.26,1,1,1.62.87,2.12a2.72,2.72,0,0,0,0,1.44c.12.19,2.81,5.73-1.14,19.23,0,0-3.12,6.08-3.12,7.54s-1,3.78-1.36,5.12-.81,4.8-.81,4.8S105.5,148.4,97.17,149.4c0,0-5.06,2.5-14.28-5.84,0,0-11.66-7.33-16.11-13a27.15,27.15,0,0,1-7.59-16.06s.06-1.06-1.44-1.69"/><path class="cls-2" d="M99,129.39s4.75,5.59,6.17,7.17c0,0,7.91,10,8.41,14.09H114l4.17-1.59a54.85,54.85,0,0,0-14.67-20.25S100.25,128.47,99,129.39Z"/><path class="cls-5" d="M144.33,169.73c3.84-4.42,1.84-12.08,1.84-12.08l-.57-1.34c-2-8.66-6.77-9.5-6.77-9.5-22.08-3.5-37,12.42-37,12.42-7.5,5.58,1.59,19.77,1.59,19.77,1.75,2.94,5.14,1.94,5.14,1.94l11.25,39.25a2.38,2.38,0,0,0,.88,1.5c9.93,4.5,21.81-2.19,21.81-2.19,6.41-3,3.72-7.25,3.72-7.25-.72-.5-1-2-1-2s1.05-8.91,1.52-9.66-1-7.52-.32-10.51-.86-16.29-.86-16.29Z"/><path d="M115.05,83.3c1.7-.86,2.2-1.36,2-2.74s.87-2.12.06-3.25-.45-3.75-2-4.75-1.8-2-2.43-2.5-.87-2-1.37-2.5-2.1-1.87-1.61-.5,1.11,1.38,1.48,2.63,2.41,3.5,2.33,4.62a29.72,29.72,0,0,1,0,3.63c-.2,2.25.49,2.06.49,2.93s.43,1.13.46,1.5,1.06,1.44.74.41a15.53,15.53,0,0,1-.39-1.84c-.13-.44-.63-1.69-.35-2.07a7.94,7.94,0,0,0,.85-1.12c0-.13.63-.38.75.44a11.84,11.84,0,0,1-.12,2.18,3.14,3.14,0,0,1-.19,1.44A11.48,11.48,0,0,1,115.05,83.3Z"/><path class="cls-4" d="M63.17,74.89s17.58-8.83,48.87-5"/><path class="cls-2" d="M40.44,84.56s15.39-20.33,70.81-17V64.73s-4.25-10.5-4.58-11.17-2-3-2-4.33.16-.83.16-2.67-13-45-24.16-45.83c0,0-22.34-4.67-53.34,28.17,0,0-1-.34,1.34,9.33Z"/><ellipse class="cls-2" cx="62.26" cy="41.56" rx="4.51" ry="5"/><path class="cls-2" d="M122.5,220.31s-1.62-5.5,11.12-8.5a16.52,16.52,0,0,1,7.26,0,3,3,0,0,1,0-1.87c.37-.63,1-1.38,1.87-2.63s2-4.75,1.37-4.87a3.55,3.55,0,0,0-2,0,63.5,63.5,0,0,0-5.62,3.25s-4.76-.38-3.13-5l7.38-5.25s2.63-1.75,2.5-2.13a18.67,18.67,0,0,1-.13-2.5s.5-.75-.87,0l-6,2.88s-2.75,1.83-4.37-3.21c0,0-.63-1.67,4.12-4.29l8.31-5.75h-2.19s-3.12,1-4.24-3.38c0,0-1-1.25,2.24-3.5l3-2.12.38-1.38-.38-1h5s2.26,1.25,1.13,4.63l-2.75,3.87s5.25.25,6.12,3.63c0,0,1,3.62-5.5,5.87,0,0,7.13,2.88,5,7.63l-2.37,1.75s1.25,2.62,2.13,2.62,1.24,3.88-.88,5.88l-3.88,4.75-1.24.87s-.5,1.38-2.76.38c0,0,3.13,4-2.87,6.75A27.85,27.85,0,0,1,122.5,220.31Z"/><path class="cls-1" d="M140.56,175.66a4.81,4.81,0,0,1,3,3.34s2.24-.17,2-3.34c0,0-.08-1.6-2.2-1.89C143.38,173.77,141.67,173.5,140.56,175.66Z"/><path class="cls-1" d="M136.12,192.81a4.91,4.91,0,0,0-1.68-3.19s1.87-2.56,4-2.31c0,0,1.62-.12,1.75,2.44C140.19,189.75,140.44,191.25,136.12,192.81Z"/><path class="cls-2" d="M106.83,177.73s-1.75-4.25,4.17-8.08c0,0,14.75-10,25.75-6.67,0,0,5.46,1.37,5,4.92,0,0,2,.25,2.25-4.38,0,0,.25-3.54-5.34-4.5,0,0-9.87-3.71-23.12,3,0,0-11.88,5.21-12,12.14A5,5,0,0,0,106.83,177.73Z"/><path class="cls-2" d="M102.56,170.31s14.61-21.22,39.52-12.32c0,0,1.25,0,.63-1.51,0,0-1.71-6.67-6.21-7.25,0,0-24.5-1.33-34.58,14.58A10.33,10.33,0,0,0,102.56,170.31Z"/><path class="cls-2" d="M106.74,48.42c2.62,0,4.1,1.18,4.81,3.75.42,1.52,1.6,2.16,2.94,1.45,2.16-1.16,2.87-3.49,3.82-5.59.25-.55-.25-1-.7-1.34s-1.08-.53-1.59-.85c-1.78-1.1-1.93-2.06-.75-3.78a1.48,1.48,0,0,1,2.3-.51c2.06,1.26,4.16,2.45,6.18,3.77,1.37.9,1.43,1.43.64,2.87-1.16,2.1-2.38,4.16-3.49,6.29a11.88,11.88,0,0,1-2.43,3c-1.84,1.8-3.93,2.48-6.37,1.38a3.56,3.56,0,0,0-2.17-.44A11.55,11.55,0,0,1,106.74,48.42Z"/><path class="cls-2" d="M26.35,116.57c.43-.08,1.16-.24,1.89-.35,1.7-.25,2.33.24,2.57,2,.06.46,0,.93.06,1.4a1.57,1.57,0,0,1-1.53,1.88c-4.28.56-8.55,1.2-12.83,1.77-2,.26-2.32-.11-2.57-2.18a13.4,13.4,0,0,1-.18-1.4c0-1.16.49-1.7,1.85-1.82a10.24,10.24,0,0,0,2.86-.46,1.05,1.05,0,0,0,.79-.76c.09-.55-.32-.86-.73-1-1.18-.49-2.39-.9-3.56-1.41a4.81,4.81,0,0,1-2.22-5.86c.33-.79.9-.64,1.5-.41,1.61.63,3.26,1.14,4.81,1.9a3.16,3.16,0,0,0,3.92-.52c1.47-1.32,2.94-2.64,4.46-3.9,1-.81,1.42-.62,1.7.61.14.61.18,1.24.31,1.85a4,4,0,0,1-1.62,4.29c-1,.8-1.95,1.69-2.9,2.57-.37.35-.86.74-.54,1.38.25.48.76.39,1.2.41C25.74,116.58,25.89,116.57,26.35,116.57Z"/><path class="cls-2" d="M25,145.61a2.17,2.17,0,0,1-2.19-1.27c-2-3-2.06-3,.15-5.76,2.85-3.5,5.64-7,8.34-10.66.83-1.1,1.32-1.1,2.06,0,.43.64.76,1.34,1.16,2a2.62,2.62,0,0,1,0,2.64c-.79,1.66.73,5,2.49,5.07,2.35.13,2.74,2.13,3.61,3.64.49.83,0,1.51-1.18,1.74-2.7.56-5.41,1-8.12,1.52C29.23,144.91,27.11,145.25,25,145.61Zm4.93-5.67a1.77,1.77,0,0,0,1.9-1.57,1.08,1.08,0,0,0-1.08-1.18,2.16,2.16,0,0,0-1.87,1.66C28.81,139.65,29.34,139.87,29.91,139.94Z"/><path class="cls-2" d="M15.27,87.39A12.35,12.35,0,0,1,16,84.21a2,2,0,0,1,2-1.58c2.3-.11,4.58-.58,6.9-.48s4.74-.43,7.12-.47c2,0,2.16.3,1.72,2.34-.32,1.49-.74,2.71-2.37,3.33s-2.43,4.1-1.37,5.78a5.13,5.13,0,0,1-.56,5.24c-.47.51-.91.38-1.37,0-.95-.76-1.9-1.51-2.86-2.25-2.76-2.11-5.53-4.21-8.28-6.34C16,89.14,15.12,88.49,15.27,87.39Zm9,1.83c0,.32.08.63.42.63s.44-.29.44-.61c.47-.41,1-.94.49-1.53a1.67,1.67,0,0,0-1.86-.24c-.43.14-.48.57-.25.94A5.79,5.79,0,0,0,24.28,89.22Z"/><path class="cls-2" d="M42.57,151.21c1.53-.18,3,.71,4.42,1.75s1.57,1.09,3-.23c1.2-1.1,1.39-1.11,2.65-.11.29.24.59.47.87.72,1.22,1.08,1.32,1.35.41,2.72-1,1.53-2.12,3-3.26,4.44-1.7,2.16-3.45,4.29-5.23,6.39-.95,1.12-1.48,1.24-2.44.35-1.73-1.6-3.79-2.77-5.3-4.64-3-3.69-2.58-8.9,2.16-11A6.53,6.53,0,0,1,42.57,151.21Zm-1.8,7.11c0,1.55,1,3.07,2.13,3.18.89.09,2.87-2.31,2.9-3.51,0-1-1.5-2-2.87-2.06S40.79,156.8,40.77,158.32Z"/><path class="cls-2" d="M131.39,75.89a6.18,6.18,0,0,1-4.06-1.69,13.21,13.21,0,0,1-1.26-1.33c-3-4-3.46-8,.87-11.64,2-1.71,4.09-3.37,6.16-5,1.3-1,1.51-1,2.63.17.16.16.32.33.47.51,1.59,1.89,1.51,2.56-.46,4.09-1.68,1.3-3.33,2.63-5,3.91a6.26,6.26,0,0,0-1.28,1.29c-1.1,1.44-1.13,2.16-.18,3.3a2.31,2.31,0,0,0,3.39.55c1.61-1.11,3.1-2.42,4.65-3.63.83-.65,1.67-1.29,2.54-1.89a1.3,1.3,0,0,1,2,.34L142,65c2,2.37,2,2.87-.44,4.78s-4.6,4-7.33,5.31A5.52,5.52,0,0,1,131.39,75.89Z"/><path class="cls-2" d="M136.7,105c.06-4.29,2.15-7.4,5.7-8.89s7.88,0,10.31,3.81a9.68,9.68,0,0,1-2.1,12.63c-1.47,1.16-2.56,1.37-3.17.6s-.48-3.18.14-4c.32-.43.75-.76,1.06-1.2a4.37,4.37,0,1,0-6.3.26c1.61,1.14,1.58,2.71,1.48,4.36-.08,1.29-.64,1.64-1.82,1.14a8.67,8.67,0,0,1-5.29-7.51C136.69,105.77,136.7,105.38,136.7,105Z"/><path class="cls-2" d="M145.27,130.79c0-.7-.17-1.12-.69-1.25a1.06,1.06,0,0,0-1.28.68c-.41.92-.73,1.89-1.16,2.8-.64,1.33-1.24,1.55-2.52,1.06s-1.76-1.22-1.38-2.7c.24-.91.59-1.78.82-2.68.13-.54.13-1.16-.46-1.42s-1.16.14-1.4.76c-.46,1.16-.79,2.37-1.27,3.52-.8,1.9-1.6,2.15-3.3,1.2a1.64,1.64,0,0,1-.83-2.3c1-2.71,1.85-5.47,2.89-8.15.77-2,1.21-2.14,3.08-1.42,4,1.53,8,3.1,11.94,4.67,1.11.44,1.48,1.13,1,2.43-1,3-2,5.9-3.11,8.81-.49,1.28-1.25,1.37-3,.65-1-.42-1.34-1-1-2.23s.88-2.33,1.31-3.49C145.09,131.37,145.2,131,145.27,130.79Z"/><path class="cls-2" d="M135.3,89.29c-.18,0-.37.06-.47,0-1.15-.83-1.32-2.2-1.6-3.47-.23-1,.44-1.51,1.31-1.84q6.32-2.39,12.59-4.87a1.46,1.46,0,0,1,2.13,1,9.18,9.18,0,0,1,.31.88c.72,2.41.41,3-1.84,3.78-3.67,1.31-7.31,2.69-11,4C136.27,89,135.77,89.13,135.3,89.29Z"/><ellipse class="cls-6" cx="83" cy="169.29" rx="4" ry="4.47"/></g></g></svg>